<svg xmlns="http://www.w3.org/2000/svg" viewBox="0 0 508.96 76.3"><defs><style>.cls-1{fill:#fff;}</style></defs><g id="Ebene_2" data-name="Ebene 2"><g id="Ebene_1-2" data-name="Ebene 1"><path class="cls-1" d="M46.3,17v3.11l.16,2.3v1.06l-.08,2.46L46.3,27l.08,1.14v3.36l.08,1.15v2.05L46.38,36v1.15l.08,1.23.08,1.14-.16,2.3V44l.08,1v2.46l.08,1V49.5l-.08,1.39L46.38,52,46.13,53l-.24,1.23-.17,1-.33.73-.24.66-.33,1-.49,1.07-.41,1.06-.33,1-.57,1-.74,1.06-1.56,1.56L39.08,66l-.81.82-.91.74-1.06.57-1.07.49-1,.58-1,.41L32.12,70,30,70.64l-3.28.82-1.23.08H23.19l-2.46-.16H19.58l-1.23-.17L17.29,71l-1.07-.17-1.06-.24L14,70.23,13,69.74l-1-.49-1-.58-1-.49-1.07-.57L8,66.87l-.9-.9-1-.82-1.4-1.39-.82-.9L3.36,62l-.57-1.07-.58-1.15-.57-1.06-.33-.9-.25-1.07L.41,54.42.08,53.27,0,52V50.89l.25-1,.81-.9L2,48.68H3L4.26,49l1.07.82.41,1.23.08,1.23.33,1.06.32,1.15.25,1.15.41,1,.49,1,.57,1.07.58,1,1.72,1.72.74.82,1,.66L14,64l1.07.5,1.14.57,1.07.41,2.13.49,1.23.16,1.23-.08,2.37.17,1.15-.09,1.07-.24,1.14-.25,1.23-.32L30,65l1-.33,1-.41.9-.57,1-.66.82-.65,1.48-1.32.73-.73.82-1,.74-1.06.49-1.07.33-.9.24-1.06.33-1.15L40.07,53l.16-1,.17-1.23.08-1.23V48.35l.08-1.14.08-1.07V44.91l.17-2.29.08-1.15v-1l-.08-1V38.28L40.64,36l-.08-1V33.93l.08-1.31V31.39l-.08-1.23V29l.08-1-.08-1.14-.08-1.23.08-1.15.16-1.15V22.13l-.08-1-.16-1-.41-.66-.74-.33-1.06-.24-2.13-.17H35l-1.15-.08H32.61l-1.31.08-1.06.09H29.09l-1.39-.09H25.4l-1.06.09-2.22-.09-1.06-.08-.66-.33L20,17.71l-.32-1V15.66l.08-1.15.49-.65.74-.25L22,13.45h5.74L29,13.37h1.31l2,.08H33.6l1.06-.08,2.29.16H38.1l1.23-.16h1.23l1.23.16,2.38-.16,1.06.24L46,14l.33.74.08,1.15ZM3.2,54.5l.16-.41-.49-.49v.57l.16.49h.08Zm.08-2.38v-.24l-.17-.08L3,51.88V52l.16.17ZM3,53,3,53.11v.08l.16.16h.17v-.16L3.11,53Zm.57,3.2H3.44v.08l.16.17.25.16-.08-.33Zm.42,3h.16L4.34,59v-.25l-.08-.16-.16.08-.17.16V59Zm.16-7.37.08-.17-.16-.08L4,51.71,4.1,52l.08-.08ZM4.59,57v-.08H4.26L4.1,57v.25l.16.24h.25l.16-.24V57Zm-.33-3.12h.08l.25-.08.16-.08v-.16l-.16-.17-.25.08-.16.17v.16ZM4.83,56H5l-.08-.08-.09-.16-.24-.17.08.33Zm-.24.66.16.08h.17l.08.08.33-.16.16.08v-.16l.08-.08H5.16l-.33-.09-.16.09Zm1.06,3.11-.24-.24-.33-.17-.41.41-.08.17V60h.33l.24-.25Zm-.73,1H4.83L4.75,61l.08.25h.25L5.16,61Zm1.55,1.39v-.25l-.32-.16-.33-.25-.17-.24-.08.33-.08.24-.16.33.16.08.08.17h.58ZM5.9,60.73H5.65l-.24-.09v.41h.08l.16.17H6L6.15,61Zm-.16-2.95.16-.17v-.24l-.08-.08H5.74l-.17.16v.16l.08.17Zm.65,2.7.17.33.08.24.08.17v.08l.33.33L7,62l-.08.16v.16l-.08.09H6.72l-.08.16-.17.16-.32.17v.41l.32.24h.25l.16-.08v1l.08.25v.08l.33-.08h.33l.16.33.17.24L8,65.4l.08-.08L8,65,8,64.82v-.16L8,64.33l.08-.24.33-.17.25-.08h.08l.16.08h.33l.49.25v.16l.08.08-.16.25.08.33.49-.17.33-.32.57.41.09.08.24.08.33.16-.16-.41-.17-.32v-.09h-.74l-.16-.16-.16-.08h-.33L10,64l-.09-.08v-.33l-.41-.41-.4-.08-.25-.24H8.77L8.6,63l-.08-.08H8.36L8.19,63l-.32-.16-.25.08L7.54,63H7.46l-.17-.16v-.25l.33-.33H7.54l-.17-.08-.08-.33.33-.16L8,61.46l.33-.41H7.87l-.25.09H7.29l-.08-.09v-.16l-.08-.16L7,60.48v-.25L7.05,60v-.08l-.41-.25-.08-.16H6.39l-.33-.08L6,59.66l.08.17.17.4Zm1.31.33.17-.17v-.16l-.09-.08-.08.08-.16.08v.17ZM8,62.2l.08.08h.08l.17-.16L8.19,62,8,62,8,62Zm1.47.66.17.16v-.65L9.42,62l-.16-.25L9,61.63l-.24.08-.17.08L8.52,62V62l.66.65Zm-.24,1.72h.24l-.08-.33-.16-.16L9,64.33Zm2.46,1.55-.09-.32-.08-.25-.33-.08-.24-.08h-.41l-.17.49-.08.16-.33.17v-.74l.09-.16H9.91l-.57-.25-.24.41.24.33-.08.08H9.18l.08.33.08.24.41.41.16.08h.17l.16-.24.49.49.66.08.49-.49.08-.33-.24-.24v-.09Zm-1.32-2.54h.17l.16-.08v-.16l-.08-.08h-.33v.24Zm1.15.58.17.33.08-.33.16-.25-.41-.49h-.41l-.08.33.16.16Zm.66.74.08-.25.08-.08h.08l.17-.33L12.45,64v-.08l-.08-.08-.24.25v.32l-.25.25v.25Zm.49.9-.08.24-.09.17v.41l.33-.09L13,66.3l.24-.17.25-.57.08-.41L13.19,65h-.33l-.24-.08-.08.08v.08l-.17.16L12,65.4v.08l.09.16h.24Zm.9,2.13v-.33h-.33L13,67.53H13L13,67h-.74l.08.32.33.17.08.08h.08l.09.08.32.17.33.4Zm.41-1.4-.41-.08h-.16l-.09.17v.24l.09.08h.08l.16-.08.66-.16v-.17Zm0-1.06.08.16.08.08h.17l.16-.08V65.4l-.16-.17h-.41Zm2.29,1.39-.08-.08-.33.08-.24.25h-.66l-.24.08-.09.16v.17l.17.16.16-.08.08-.16.17-.17.24.08.5-.08.32-.33Zm.17.66-.08.08-.09.16.25.17.41.24-.16-.49Zm-.08,1.39-.09.33.33-.25v-.24l-.08-.09h-.16Zm1,.25-.16.08v.16l.24.17h.17l.08-.25v-.08h-.17Zm.33-.5v-.16l-.08-.08h-.09l-.08.08v.08l.08.08Zm.73-1.39.17.08h.24l.09-.24L18.6,67l-.25.17Zm.91,1,.41.25v-.08l.08-.17-.25-.32H19Zm2.13.66-.09.33.25-.08.16-.17v-.08l-.08-.08Zm.16-1,.25-.08.16-.17-.25-.08-.16.16ZM35.48,15.66V15.5h-.33v.08h.08l.09.08Zm.9.9.16-.16-.24-.08-.16-.09h-.25l-.08.25.08.16.25.09Zm.74.17.24-.25H37l-.25.08v.08l.08.17Zm2.37-.33v-.17l-.16-.16h-.16v.16l.16.17Zm.66.16.08-.24-.33.08-.08.16v.08l.08.09Zm.74-.82-.17-.16-.16.08.08.16h.25Zm.49.17.49-.17H42l.17-.08V15.5l-.33-.17-.33.17H41.3l-.17.08v.16l.17.17Zm0-1.15.25.08.41-.08.08-.08L42,14.59h-.41l-.25.09h-.16l.08.08Zm.33,1.47-.25.25-.08.16-.08.09v.08l.16.08.08-.08.09-.17.32-.16.33-.08L42,16.07Zm-.08,4.18.32.17.09-.09v-.16l-.25-.25h-.41Zm1.22,1.48.09-.66-.33-.49v-.33l.08-.08-.25-.25-.16.33.08.17v.16l.17.25-.09.24H42.2v-.16h-.33l-.24.33.16.32.25.17.4-.17Zm-.65-4.84H42l-.17.17.08.08.09-.08h.08l.08-.09ZM42,18.86,42,19.1l.17.17h.16l.49.16h.33l-.25-.33-.49-.24Zm.08-.74h.24V18l.08-.09h-.08L42.2,18h-.08ZM43.43,23h-.08l-.5-.65-.08-.09-.24-.08-.17.25.08.33-.16.41.33.41.16.41-.33.08-.24.08.08.25.25.41.49.32.41-.16.24.41.25.24.16.41-.32.17-.17.33-.49-.09-.33-.08-.33.08v.17l.25.16.25.33v.49l-.25.08v.25l.08.33.17.41L43.1,28,43,27.87l.16-.25.17-.16h.24l.17.08h.41l.24-.16h.08v.08l.09.25-.41.4v.17l.24.16.25-.16.08-.17L44.9,28l.17-.41.08-.41-.25-.16-.16-.25-.16-.41-.33-.24v-.08l.33-.41-.09-.33h-.24l-.41-.08.08-.33v-.25h.57v-.32l-.08.08h-.16L44,24.35V24.1l-.16-.25-.33-.24-.33.08v.08H43.1l.08-.08v-.41l.25-.16Zm-1.07,5.82h.17v-.08l.08-.08v-.09h-.25Zm.33-2.95.49.16.33.09.16-.33-.32-.49h-.66l-.25.32Zm-.25,7,.17.65.49.08.25-.08v-.08l-.25-.17h-.25L42.69,33ZM43,35.57l-.25.08-.16-.08-.08.08.08.33.33.08.24-.16.08-.25Zm.24-17h-.32l-.09.08.09.17h.32ZM43,32.54l.24-.08h.33l.17-.17-.33-.16H43l-.08.25Zm.33-13.11-.17.41-.08.24-.08.09v.08l.16.74.17-.09.32-.24-.08-.25.08-.24h-.41l.25-.33ZM43.18,22l.08.08.09-.08v-.25l-.17-.16-.08.25Zm.74-1.07h-.08V21l-.33.16h-.16l-.17.16.17.17h.16l.25.24-.17.25-.16.08v.41h.24l.5-.25.41-.49.16-.32-.25-.25L44.17,21Zm-.49,9,.08.08.25-.16.24-.25v-.16h-.24l-.5-.82-.08.57ZM43.35,38l.08-.16v-.09l-.08-.08-.17.08V38l.08.08Zm0-21.47.32-.33v-.08h-.08l-.16.08-.17.17v.08h.09Zm0,.41.08.08h.33l.24-.24.08-.33L44,16.4l-.08-.17-.08.17-.17.08-.24.16ZM44,28.28l-.08-.17L43.67,28h-.16l-.16.17.16.24.25.08.16-.08Zm-.49,12-.08.09v.16l.24-.08H44l-.24-.25Zm.33-21.87h-.17l-.08.08v.33l.17.24.24-.33Zm-.17,14.66-.08.08v.09l.17.08h.08V33Zm0-15.16V18l.41.08V18h.25l.08-.33-.16-.17h-.08l-.09-.08-.32.33ZM44,39.09l-.16.25.08.16.08-.16Zm-.08-19.5.16.25h.25l.16-.08v-.25l-.08-.16-.24-.08-.25.16Zm0,3.85.25.33.32-.08.09-.25.32-.57.25-.57-.66.32L44,23Zm.33,7.71.16.08h.17l.08-.17L44.58,31l-.17-.08h-.08l-.08.16Zm.08-1.89v.17h.16l.17-.09V29.1h-.25Zm.33,7.87L44.41,37v.09l-.08.08.08.24h.25Zm.24-2.87-.08-.16h-.08l-.08.08v.08l.08.16.08.09.08-.17Zm.33.82.08-.08-.24-.25-.33-.08.16.33.33.16Zm-.41-8.93.08.16H45l.17-.08.16-.16L45.23,26H44.9Z"/><path class="cls-1" d="M109.88,69.74l-.58.82-1.06.24H107l-1.15-.08-.82-.24-.82-.58-.74-1.06-.32-1-.5-.91-.57-1.06-.49-1.23-.41-1.07-.41-1-.41-.82-.33-1-.57-1.07-.66-1-.57-.57-.9-.33-1.15-.17H95.13L94,57.61H90.54l-1.15-.08H87.18l-2.46.08-1.23-.08-1.06-.08H81.36l-1.23.16-2.21-.16H76.61l-1.15.08-2.21-.08-1,.08H71.2l-1.15-.16H68.91l-1.32.08-1.22.16-.82.33L65,58.6l-.49,1-.57,1.31-.25.66-.57,1.14-.49.9-.58,1-.41,1.06-.24,1.07-.49,1.06-.5,1-.82.82-.65.57-.82.49L56.94,71H55.71l-1.14-.41-.66-.82.25-1.07.65-1,.82-2,.49-1.06.58-1.15.49-1.14.33-1,.41-.9,1.14-2.13.33-1,.41-1,.49-1.06.41-1.07.58-1.06.4-1.15.41-1,1.15-2.13.49-1.07.41-1,.58-1.23.32-.66,1-2.29.33-1.07,1.47-3.19.57-1,.41-1,.49-1.14.33-.66.49-1.23.33-1.31L71.53,30,72,29l.57-1L73.08,27l.41-1.07.33-1,.41-1,.49-.91.58-1.14.49-1.15.41-1.07.41-1L77,17.63l.49-1,.57-1.06.74-1.07.57-.65.74-.33,1.15-.08,2.29.16.9.41.66.66.66.82.32,1,.41,1.15,1.07,2.13.49,1.14.49,1.23,1,1.72.5,1.07L90.37,26l.41,1.07.49,1,.5,1.15.49,1.07.82,2,.49,1.07.49,1,.9,2.21.49.9.66,1.07.41,1.15.41,1,.57,1.06.49,1,.82,2.13.41,1,1.15,2.13.49,1.07.41,1.14.33,1,.33.9.49,1,.65,1.07.5,1.14.49,1.07.49,1.15.49,1,.41.9.49.9.49,1.23.33,1.07.33,1,.41,1,.49,1.15.66,1.15.49,1.06.49,1Zm-52-4.26-.16-.08-.08.24.08.17h.08l.08-.09Zm.66-3.36.16.16h.09l.16-.32-.08-.09h-.17L58.5,62Zm.33,4-.17-.08-.08.25.17.24.08-.24Zm.73-2.29-.41.16-.32.17.08.16H59l.41-.08ZM59,61.14l.16.24.25.08.08-.08V61.3l-.16-.08Zm.41,1.06-.16.17v.08h.16l.08-.08V62.2Zm.41-.33.49-.08.17-.24v-.09l-.09-.08-.24.17Zm1.48-4-.33.08-.08.25-.17.16-.16.33-.41.24h.57l.08-.49.5.08Zm-.74,5.82-.08-.25H60.3l-.16.33.16.16Zm.65-2.54L61,60.81v-.33l.08-.25V60l-.24-.08h-.17l-.08.08v.16l.16.08.09.25-.09.16v.5l.25.32h.16Zm.33-3.69.25.08.24-.24V57.2h.08l.5-.24.08-.49-.08-.41h-.41L62,55.89l-.16-.08-.08-.16h.82v-.09l.08-.24V55l-.33-.16-.33.32v-.08L61.94,55l-.49.25-.33.41v.24l.25.17v.08l-.33.24v.09L61,57H61Zm.25,1.39-.09-.08-.16-.08-.16.16V59l.16.65h.16v-.33l.09-.32ZM63.25,58l-.08-.08L63,57.86l-.17-.17-.08-.16h-.08l-.08.16v.17l-.17.24L62.19,58,62,57.94h-.08l-.25.08v.25l.41.41.58.24H63l.16-.32.08-.33ZM66,52.94l-.17-.41-.24-.32V52l.24-.16.17-.33.49-.17v-.49l.08-.16v-.17l-.08-.24H66.2l-.65,1.06-.33.33-.08.41-.33.08H64.4L64.32,52h-.17L64,52l-.33-.25-.33.17-.08.33.25.32-1.15.33.25.25.08.32-.49.5V54l.32-.17.25-.16.57.08.33.41.08.58-.16.4-.16.17-.25-.08-.33.08.25.41.33.33-.5,1.14.74-.32-.08-.74.16-.33-.08-.33.25-.16.24-.08.17-.17.08-.24.08-.08-.08-.41.16-.33-.16-.17v-.16l-.17-.16.09-.33-.25-.25v-.08l.08-.16.17-.09.24.09.17.08V52.7l-.09-.17.33-.16.25.16.41.25Zm-3.12,6.39h-.24l-.17.17v.33h.25l.16-.17ZM63.17,55l.25-.08.08-.25-.25-.08-.16.33Zm1.06,2.62-.16-.16-.33.08-.08-.08h-.08l-.16-.16-.25.08.08.24h.25v.08h.08l.25.17.32-.08.08-.09Zm.33-1-.08-.33-.33-.08v.16l-.08.09-.16.32-.33.25.57.16.41-.49Zm-.65-5.49.16.41.41.25.16-.17V51.3l.09-.32.08-.25.24.25.17.08.08-.41-.16-.41-.25.24-.08.25-.25.08H64Zm.65,4.51-.08-.17H64.4l-.08.08-.09.17.17.16h.08l.08-.08Zm-.08-5.58.08.09v.08h.25l.08-.17v-.16l-.08-.08-.17.08Zm1.23,3.69-.25-.33-.24.09-.17.24-.24.49-.25.58.33-.17v.09h.33l.08-.09-.08-.08.49-.49ZM65,53.27h.17V53L65,52.94V53h-.08v.17Zm.33-3.85.16.16.33.08.08.25.17.16v-.65l-.49-.16h-.17Zm.33-.74h.24l.17-.16.08-.17L66,48.27h-.17l-.16.17Zm.49,3.61.16.08.09-.08v-.17h-.09L66.12,52l-.08.08v.09ZM66.45,54l.32.08.09-.08v-.17l-.25-.24-.33.08Zm.57.82h-.33l-.16.24.08.17h.08l.17-.17Zm.25-6.89.24-.24v-.17l-.16-.16H67.1l-.16.16-.08.25.16.16Zm-.09-1.23.09.25.08-.25v-.24h-.17Zm.58,2.3.24-.08v-.17l-.08-.08h-.16l-.25.25.08.08Zm0-1.56.08.33.33.25.08.08.16-.08-.16-.33L68,47.45l-.16-.08Zm.08-2.37.08.08.17-.08.32-.25-.08-.57-.33.41Zm1,8.85-.24-.17-.25.17-.24.08-.09.16.25.25.41-.17.16-.08Zm-.49,2.45-.08-.16h-.08L68,56.3v.08l.09.09.16.08.08-.08Zm27-5.24-.08-1-.25-.9-1-2.14-.49-1.06L93,44.91l-.5-1.06-.57-1-.41-1.06L91,40.73l-.41-1-.49-1-.41-1.07-.41-1.15-.58-1.06-.4-1.15-.66-2-.57-1.07-.66-1-.82-2.13-.57-1L84.64,26l-.33-1.14-.49-1.07-.49-1-.41-1L82.26,21h-.74l-.65.9L80.46,23l-.9,1.81-.41,1.23-.41,1.06-.66,1-.49,1-.41,1-1,2.13-.49,1.07-.5,1.14-.32,1.15-.41,1.07-.33,1.06-.49,1-.58,1-.49,1.15L71.94,43l-.58,1-1,2.13-.49,1.15-.33,1-.49,1.07-.57,1.06-.33,1.07.57.73,1.07.17H71l1.23.08h3.35l1.07-.08h1.15l1.14.16,2.54-.16.74.08h1.31l4.59.16,2.38-.16,1.06-.16h1.23l1.07.08,1-.25ZM68.41,46.71l-.16.25.16.33L68.5,47Zm.17-2.62.16.17.08-.09v-.24l-.08-.08-.16.08ZM69.07,43l.08.16v.08h.16l.09-.08V43L69.31,43h-.16Zm.41,1.88h-.17l-.08.17.08.16.17.08h.16l.17-.16L69.73,45Zm.33,9.84-.08-.09h-.25l-.25.17.33.16.25-.08Zm.24-11.31h.17l.08-.08.08-.17-.16-.08Zm1.48,11.63-.25.17L71,55l-.32.57.08.09h.57Zm.74-.9L72.18,54H72l-.16.33-.09.49.41-.25Zm0-.57.32.16h.33l.25.41v.49l.24.25.25-.16.33-.33v-.25l.16-.16-.25-.17h-.32l-.17-.32h-1l-.08-.25H72.1l-.08.08v.08l.08.17Zm1.47,1.8-.08-.33-.33-.16-.57.08-.41.57h.49l.33.09h.41Zm.66.66L74.15,56H73.9v.17l.25.08Zm.57-1,.24.08.17-.16-.17-.24-.24.08h-.08l-.08-.08h-.33l-.33.32v.17h.33l.24-.17Zm-.16.49-.17-.08-.08-.08h-.08l-.08.08.16.17h.08ZM76,54.42v.08l.08-.08-.16-.58-.25-.57-.08.16v.17l-.33.16-.24.33-.33.08-.08.33.33.16.41-.16.32-.08Zm-.24,1.06-.09-.08-.32.16-.17.25h.41l.17-.25Zm.57-.08-.16-.33L76,54.66l-.16.17.08.16v.41l.25.33.16-.08Zm.16-1,.17-.17.16-.24-.08-.17-.16-.16-.25.08L76.2,54l.08.16Zm.91.33-.66.16-.16.65v.09l.24.32.33-.16v-.74Zm1.55,1.39L78.74,56l-.25-.16V55.4l.08-.08v-.08l.17-.17V55l-.08-.41-.17-.16-.57-.33-.82-.41-.08.16v.25l.16.08.33.33.33.41v.16l.24.41.17.49-.25.17v.33l.25-.09.32-.08h.17Zm-.49-2.46.08.33.08.16.17.08.33-.16v-.16l-.41-.41-.25-.33v.08h-.08Zm1,2.13-.08-.25H79v.17l.09.16.16.17.08-.17Zm1.15-.57-.08-.17h-.33l-.08.08.08.09.16.08h.09Zm.66-.74-.09-.25-.24-.16-.25.08-.08.25.08.33.33.16.16-.16ZM82,55h-.09l-.08.08-.08.17.08.08.17-.08Zm.82.33-.25-.25-.33.08v.33h.49Zm.65-.57-.24-.25-.09.33.09.24h.08l.08-.08Zm1.48.16.16-.08.08-.17V54.5h-.16l-.17.08-.08.17Zm.32,1.39-.08-.16-.08-.08-.16.16.24.25.08-.09ZM86.85,55l-.08-.08-.33.16v.17l.08.08.25-.08.08-.17Zm0-29.91.16.25.25.08v-.49l-.08-.16h-.25l-.08.16Zm.57.82-.24-.16H87.1l-.09.08.17.25.33.16Zm.09-1.8.16-.08v-.08l-.08-.17h-.08Zm.73,4.59.25.08h.24l-.16-.25h-.24l-.09.09Zm.09-.66.08.08h.16V28l.08-.08-.08-.08h-.08l-.16.08Zm.57,2h-.25v.25l.33.08.33.16.16.25.17-.49Zm0,1.06L88.65,31v.25l.17.16H89v-.16Zm.33,23.28-.09-.09h-.08L89,54.5l.08.33.17-.25Zm.16-21.06h-.16l-.09.08v.16l.09.08h.16l.08-.08v-.16Zm0-4.26.08.24.08-.08V29.1l.09-.17h-.17Zm.41.41h-.16l-.09.32.25.25.25.16.08-.08.08-.33L90,29.59Zm-.25,6.8.41.16.41.08v-.16l-.08-.17L90,36.06Zm.09-1.4.08.25.16.08.25-.08.49-.08.25-.08-.33-.25H90ZM89.88,32v.08l.17-.08.08-.09v-.16l-.08-.08-.17.08-.08.08Zm.33.08-.16.16v.25l.49.16.24-.16v-.25l-.24-.16Zm.33,2.37h.16l.08-.08v-.16l-.08-.08-.16.08h-.08l-.09.16Zm-.17,2.87.25.25.33.08.32-.33h.41l-.16-.65L91,36.31,90.78,36l.09-.08-.33-.08v.32l.08.17.08.08.25.16.08.33-.16.08-.17-.16-.24.16Zm.25-7.86.16.16h.09l.08-.08-.08-.17-.25-.16ZM91.11,33l-.24.16v.25h.4v-.08l.25-.09L91.44,33,91.27,33Zm.33,1-.33-.24-.16.16.16.33.33.16Zm.33,1.64v-.24l-.41.16.08-.41-.33-.25v.33l.08.41-.08.08v.09l.49.57.17-.17.16-.32ZM94,39.09h-.17l-.16-.24-.24-.16L93,38.6l-.25.25-.08-.08v-.08l-.08-.25.08-.25V38h-.08l-.74-.33v-.08h-.41V38l.24.24v.5l.41.16.41.33-.32.24-.17.25.17.16.41.25.57.08.33-.25.32.17.42.16.32.33-.24.25-.08.41-.82.16-.25.24.16.17h.17l.41.24.16.41-.16.25.16.16.17.25.32.33-.16-.66h-.08V42.7l.16-.49.25-.08h.16l.33-.17.16-.24h.17l.16.24-.25.49.09.17.32.08.17-.25v-.24l.16-.08v-.41L96,41.31l-.33-.17-.25-.08-.32-.41h-.41v-.08h-.09l.17-.49-.17-.33-.24.16H94l-.08-.24v-.25l.16-.08.25-.08v-.08l-.08-.33Zm-2.3-4.58.09.24.24.08h.17l.08-.24v-.17l-.17-.08h-.24Zm.58,1.39-.08.08v.08l-.09.17-.32.32.16.09h.25l.24.08v.33l-.08.16.08.16v.25l.25-.08.41-.58.16-.57V36l-.41-.08ZM92,37.29h.08l.09-.16L92.09,37l-.24-.08v.25ZM93.16,41h.57l.33-.16v-.33l-.57-.33-.58.33-.16.41Zm.33-3.69-.25.58.08.41.41.16.25-.16V36.72Zm.74,6.31-.17-.08L94,43.6v.17l.08.08.17-.08v-.09l.08-.08Zm1-1.06-.17.08-.24.08V43L95,43h.25l.16-.17V42.7Zm.49,2,.16-.24L96,44l-.09-.24-.16.08-.41-.25-.49-.24.24.49.33.49Zm-.41-4.09.08.08h.08l.17-.17.08-.16-.16-.08h-.09l-.16.16Zm1.64,7.21H96.6l-.24.08-.25-.17h-.25l.41.58.66-.33Zm-.57-4.43-.17.08-.08.09v.16l.08.08h.17l.08-.16v-.17Zm.08,3.36h.08l-.41.08V47l.16.08.17-.16.33-.08.08-.25-.17-.08ZM97,45.32l.16-.08v-.16L97,44.91l-.16.08-.08.09v.08l.08.16Zm.16,1.89-.08.08v.24h.25v-.16Zm.66,2.86-.08-.24H97.5l-.16.16h-.17l-.08.17.17.24.32-.08Zm.66-2.13.08.17h.16l.08-.17-.16-.16h-.16Zm.41,3.94-.09-.17h-.16l-.08.09.08.16V52h.16V52Zm.16-3.36.33.08v-.25l-.33-.08-.33.08Zm.74,2.37-.17-.24-.24-.08v.16l.16.16Zm.08,2,.08.25.08-.25-.16-.24Zm.57,1h-.33l-.24.08v.16l.08.08.25-.08Z"/><path class="cls-1" d="M166.16,50.65v1.23l-.08,1.06v3.44L166,57.53l.08,1.15v1.23l-.16,1.23-.33.9-.49.82-.66.9-.9.82-1.15.74-1.72,1.31-1,.73-1.07.66-1,.57-1,.49-1.15.5-1.15.41-1.06.41-1.07.32-1.23.33-1.23.25-1.14.16-2.38.16H140.6l-1.15-.08-1.23-.16-1.15-.33-2.13-.41-3.19-1.06-1.23-.5-1-.41-1-.49-1-.65-2.13-1.23-.9-.66-.74-.82-.82-.9-.9-.74-.66-.57-.73-.82-.82-1.06-.66-1-.57-1.06-.41-.9-.5-1-.65-1.06-.49-1-.66-2.14-.33-1.06-.49-2.13L115,48.27l-.25-1.15-.16-1.06-.08-1.15V42.54l.08-1.23V40.08l.08-1.07V37.78l.08-1.14.25-1,.41-1.06.16-1.15.25-1.15.82-2.29.41-1.15.49-1.06.57-1,.58-.9.73-1.06.66-1,.74-.9.65-1,.74-.74.82-.74.65-1,.91-.74,1-.65,1.06-.66,1-.65,1-.49,1-.58,1-.65,1.06-.41,1-.25,1-.41,1.15-.41,1.23-.24L137,13.2l1.23-.08,1.07-.08,1.06-.17,1.39-.24,1.15-.17H144l1.15.09h1.06l1.23.08,1.23.24,1.15.17,2.37.57,1.15.33,2.13.82,1,.49,1,.57,1.14.5,1.07.57,1.06.49,1,.57.9.74.82.74.73.9.25.74-.25.82-.57,1-1,.74-.82.24-.9-.24-1.07-.49-.82-.66-.9-.57L157,21.4l-1-.58-.9-.57-.9-.41-1.07-.41-1.06-.25-1.15-.32-1.06-.41-2.22-.33L146.41,18,143.14,18l-1.23.09-2.46.08-1.15.24-1.06.41-2.13.66-1,.49-.9.41-1.06.41-1.15.57-1.15.66-1.47,1.15-.9.9-.74.9-.82,1-.49.49-.9,1-.66,1-.57,1-.49,1.07-.58,1-.41,1.15-.33,1-.24,1.07-.33,1.15-.24,1.14-.09,1-.16,1.06-.16,1.15-.09,1.15-.08,1v2.46l.25,1.14.08,1.07.16,1.23.33,1.15.49,2.13.49,1.14.58,1.15.57,1,.41,1,.49.82.49.57.5.65.73.82.74.74.74.9.74.66L129.7,62l1.06.65,1,.57,2.05,1.15,1.14.41L136,65l1.14.33,1.23.32,1.31.17h.66l1.31.16h2.54l1-.08h2.29l1.23-.17,1.06-.24,1-.25,1-.32,1.07-.33,1.14-.33L156,63l1-.49.91-.57.82-.74.81-.82.58-.66.33-.82.16-1.23.08-1.06-.16-2.29V53.19l.16-1.15V50.89l-.08-1.14-.08-.9.08-1.15-.41-1.15-1-.82-1.15-.33h-2.21l-2.22-.16-2.45.25-1.07-.09-2.37-.08-2.46-.16-1.15.08-.9-.25-.66-.41-.49-.49-.33-.82-.08-1,.33-1,.41-.74.65-.49,1.07-.17,1.23.17,2.21-.08,1.23.08H150l2-.08,1.23-.09h2.37l2.38.17h1.15l1.06-.17h1.15l1.23.17,1.23.08,1,.08.66.33.32.74.17,1.14.08,1.23v1.15L165.92,46v1.14l.24,1.15ZM116.92,35.9l.08-.16v-.17l-.08-.16-.17.08-.16.16v.25l.24.08Zm.49-1.07.16-.16-.08-.08-.25-.08h-.32l.24.32Zm0,5.25-.08-.25-.33-.08.08.33.16.16h.09Zm.32-4.18v-.25l-.08.09h-.08V36l.08-.08Zm0-4.18.66-.16V31l.57.08-.08-.32v-.49l-.33.16-.16.33h.08l-.16.16-.17.49-.24.17Zm.58,6.15v-.25l.08-.25-.25.17-.16.16-.25.33.09.08H118Zm0-3.12-.33.41.57-.24v-.17l.09-.16v-.08l-.17-.09Zm.41,5.49-.17-.24h-.16l-.08.08.16.24.25.17Zm-.25-10.9.66.41.33.09.24-.25v-.08h.08l.25-.17.25-.08.08-.08.08-.57-.08-.25V28.2l-.25-.09h-.33l-.16-.16-.16-.08-.09-.16h.41l.41-.09h.17l.16-.73-.08.08-.41-.25-.33.33V27h-.08l-.33.08-.33.16-.16.25-.16.16V28l.32.16-.08.09v.08l-.41.41Zm1,5-.09-.16v-.25l-.32-.24v-.82l-.09-.08-.24-.09h-.17l-.08.09V33l.25.08.16.17-.08.24.08.25v.33l.41.32h.08Zm-.09,2.54-.08-.08-.08-.16h-.16v.08l-.09.16v.25h.25Zm.25-5.57-.16-.08h-.17l-.16.08-.08.16.41.82h.08v-.41l.08-.32Zm.33-.25.57.25H121l.08-.33v-.73H121l-.16-.09-.16-.16-.09-.16-.16-.09-.08.25v.16l-.08.17v.08H120l-.17-.08-.16.08h-.25l.09.33Zm0-5.32.41-.17.33-.16.32.08h.33l.16.25.17.33v.65l-.17.49-.24.17-.33-.17-.16.09-.08.08.16.41.41.32-.17.33-.08.25-.08.08-.16.74.08-.08.24-.17.41-.24v-.33l-.08-.41.17-.33v-.41l.24-.16.33-.17.08-.08h.08l.09-.24.08-.09v-.49l.16-.33h.08l-.24-.16v-.25l-.08-.24.08-.25-.17-.32v-.09h-.08l.17-.24h.24l.25.08.16.16v-.32h.17l.16-.09.65.66.5.16-.09-.24-.32-.66.08-.08V24l.33-.17.24-.32h.58l.16-.5.08-.08h.08v-.57h-.32l-.17.08-.33.33-.41.33-.16.16-.41.25-.08.16-.17.25h-.32l-.41-.09-.08-.08-.25-.08-.41-.41h-.41l-.16.41.08.41-.33.08-.16.08H121l-.65.17.24.33v.32l-.65.58ZM121,32l-.08-.25-.24.08-.25.17.08.24.08.08h.25l.16-.16Zm.08-5.08.25-.09v-.08l.08-.08v-.08l-.24-.08-.17.16-.08.16Zm1.15,3-.24-.17h-.5l-.24-.24-.25.08.08.25.25.08h.08l.08.08.33.16.25-.08Zm.33-1.07-.08-.33-.33-.08-.08.08-.17.33-.16.17-.33.24.66.17.49-.5Zm0-1.06-.08-.25-.17.08-.08.09-.08.16.16.16h.17l.08-.08Zm0-4.92.08.25.33.32.25-.16h.08v-.16l.08-.17.08-.33.25-.24.16.33.25.16v-.08l.16-.33v-.25l-.08-.24-.33.16-.16.25h-.33l-.25-.08h-.41l-.16.24Zm1.47,3-.24-.41h-.33l-.16.33-.33.49-.08.08-.08.17-.25.33.41-.09.25-.08.16-.08.49-.33.08-.24Zm-.73-.65h.16V25l-.16-.08-.08.08-.09.16Zm.24-3.61.08.17h.25l.16-.17.09-.16L124,21.4h-.24l-.25.16ZM125,24.43l-.08-.17-.17-.08-.16.08v.09l.08.08.16.08H125Zm-.33-3.36.16.24.25.17v.33l.16.24.09-.33.08-.24.08-.17-.66-.32Zm.74-.66.24.08H126l.08-.16-.08-.16-.24-.17-.17.08-.16.17Zm1.72-.33.08.25.25.16.32-.08v-.08h.09l.08-.08L127.9,20l-.25-.16-.16.08h-.09Zm.65,1.48-.24-.08h-.17l-.08.08v.16l.17.09h.24v-.09l.08-.08Zm.25-2,.16-.08.09-.08.08-.25V19l-.08-.08-.17.24-.08.17Zm.33.74h-.17l-.08.24v.17l.17.41.08.08h.16v-.57Zm.57.24.25-.16V20l-.25.17Zm.9-2.13h.25l.49.09.08-.09.08-.24.17-.25h-.25l-.24.08h-.09l-.49.25Zm1.07,48h-.25l-.33.08.25.17.16-.09h.09l.08-.08ZM131,19.43l.16.33h.25l.08-.25-.08-.24-.17-.09H131Zm.57,46-.24-.08-.25.16.08.08v.08h.25Zm-.33-47.2h.17l.16-.16v-.17l-.16-.08v.08l-.17.17Zm1.23-.41.09.16h.16l.16-.16-.08-.16h-.16l-.17.08Zm.74,49.33-.24-.49-.17-.17-.08.08-.08.17.16.33.25.08Zm-.08-48.43-.25.08.09.09h.08l.24.08v-.25Zm.74,49.25-.25-.08-.24-.17-.09.25.33.24.25-.16Zm1.06-1.07-.08-.16v-.08h-.08l-.17.08.09.08v.08Zm.25-.74-.17-.32h-.16l-.16.16.08.16h.08l.16.09Zm.57,1.64.17-.08v-.16l-.25-.17-.16-.08-.17-.16.17.49Zm-.16-1.14.16.08h.08l.09-.25v-.33l-.25.25Zm1.88,1-.16-.16-.17.08v.24l-.16.17-.24-.08-.5.08-.32.32.08.09v.08l.41-.08.24-.25h.25l.33-.08.24-.08Zm1.4.41-.09-.08-.16-.08-.08.16-.33.16-.25.17v.08h.33l.33-.08h.16l.09-.17Zm-.17,1.56-.16-.25-.17-.16-.32.16.08.25.16.08h.17Zm.25-2.3v.41l.49-.16h.16l-.16-.25-.25-.08h-.08l-.16-.08-.33-.08-.41-.25.25.49Zm1.39,1.64.08-.16h-.24l-.17.08-.24-.08-.09-.33.09-.08-.09-.17-.08-.24-.24.16-.25.49-.08.58.08.41h.66l.32-.09v-.16l.17-.33Zm-.25-1,.33.08v.08h.08l.17.25.16.16.33-.08h.25l.16-.17.16-.08-.08-.41v-.16l.08-.25.09-.08.16.33.16.25V68h.08l.58-.16-.08-.41-.33-.17.08-.08-.16-.25-.25-.24-.41-.08-.24.08-.09.33-.08-.09-.33-.08-.08-.08-.49.16-.25.66Zm.66,1.88v-.16l.16-.25-.16-.16-.25.08v.41l-.08.25.17.32h.24l.08-.24Zm8.19-1-.24-.17h-1.48l-.24-.08-.25.08-.16.09-.25-.33-.16-.25V68l-.08-.16v-.58l-.25-.24-.33.16-.16.25-.25-.17-.57-.57-.16.24-.09.17-.08.08-.33-.16-.32-.09h-.09l.25.25.16.08.09.08.24.58-.24.49-.25.16-.49.17H143l-.24-.09v-.32l-.17-.17-.33.33-.16.41h-1.31l.33.33.33.24.32-.16.25-.16h.41l.33-.17.49.33.16.08.25-.08.08.08.41-.24h.41v-.25l.24-.08.09-.25h.24l.09-.24.08-.09v-.08h.24l.17.17v.41l.08-.09.16-.08.25.17v.32l-.08.5.16.41.25-.33.16-.41.16-.08.09-.09.32.17.33-.08.25.16.16.16h.08l.17-.16.24-.08h.17l.08-.17Zm-6.72,1.23-.08-.33h-.24l-.41-.08-.33-.17.08.58.33.16.25.08H142Zm.82-.33-.16-.16-.25.08v.24l.17.09.08-.17Zm0-1.39.17.16h.24l-.08-.25-.24-.08h-.09Zm2.38,1.39-.16-.25H145l-.33.09h-1l.25.24.65.33.33.08.33-.08Zm-.08-28.27-.16-.08H145v.08h.08l.09.08h.16Zm.33,27.61h-.09l-.08-.08-.08.08v.25h.08l.17-.08Zm.65-26.79-.24-.08-.17-.08h-.24l-.09.24.09.08.24.09.17-.09Zm.08,25.24.09.49h.08l.16.08.49-.33h.25l-.08-.24-.41-.41h-.08l-.17.08Zm.66-25.16h-.33l-.24.08v.09l.08.08h.24Zm.08,27.21h-.24v.32L147,70l.16-.09Zm.25-1.48.08.16.41-.08.08-.24.08-.17-.08-.08h-.16l-.25.08Zm.41-.82.16.17h.16l.09-.09v-.08l-.09-.16h-.24l-.08.08Zm1.23-25-.09-.08v-.08h-.16v.24H149Zm.24,25.65-.16-.41-.08-.17h-.17v.33l.08.25-.16.16v.33Zm.41-25.57h-.24l-.09.25v.08h.09l.16-.08Zm.49,25L150,67h-.16l-.17.08v.08l.08.25H150Zm.17-25.56-.17-.17-.08.17.08.16h.17Zm.24.08.25.16.33-.08.16-.08v-.25l-.25-.08-.16.08-.25.09ZM151.17,69l-.09-.16h-.41V69l.17.17h.24l.09-.09Zm-.41-28.1.24.16.17-.08.08-.08-.08-.08H151Zm.57,1.72.33-.08-.41-.33-.25.33-.24.16V43l.16.08.16-.25Zm.41,25-.16-.16h-.25l-.16.16-.09.16.25.25h.16l.09-.08.16-.08Zm.16-24.5h-.24l-.17.16.25.09.16-.09Zm.33,25-.08-.16H152l-.17.32.08.41v.09l.25.08v-.33ZM152.4,67l-.17-.16-.16.16v.17l-.08.08h.16Zm.49-24.41-.08-.17h-.17l-.08.17.08.16h.17l.08-.08Zm.16,25.23-.33.17-.08.32.25-.24Zm.57-25.4-.08-.24-.16-.17-.25.17-.08.24v.25l.25.08Zm.82,23.27h-.08l-.33.17H154l-.16.16-.25.16.08.09.17.08h.08l.16-.08h.25l.08-.33v-.17Zm-.49-22-.16-.08-.08.08v.17l.08.08H154Zm.49-1.56.09-.24-.25-.08-.16.08v.49l.24.08.17-.33Zm.33.33.08.08.25.09.25-.25-.33-.16-.25.16Zm0,23.44h.08l.09-.09.08-.16-.08-.08h-.17Zm.58,1.14-.25-.24H155l-.25.08V67l.17.08.16.16.16-.08.09-.16Zm-.5-23.84h.25l.08-.16-.08-.17H155l-.17.17Zm.82-.16-.32.16-.25.49v.33l.25.08.16-.08v-.25l.16-.49Zm-.16-1,.08.17h.25L156,42l.08-.24-.16-.17h-.17l-.16.09Zm.41,22.95-.17-.17-.08.08h-.08v.25l.16.08.09-.08Zm.08-22,.33.09V43l.16.08.58-.16L157,42.7l-.16-.25h-.25l-.24-.08v.41l-.25-.24-.41.16Zm2,1.07-.17-.33.09-.41-.5-.08-.57.33h-.25l-.08-.08-.24.24.32.08h.33l.17-.16.24.08v.17l-.16.08.08.32.25.17.32-.17Zm-1.23.08-.08-.08h-.17l-.24.24v.41l.24-.24Zm.08,21.39-.16-.17-.17.09-.08.24h.16l.09-.08Zm.25-23.11h.08l.16.33v.16l.08.08.17-.16v-.16l.24-.17.25.08.08.17h.17l.16.08.08-.25-.33-.49-.41-.41-.32-.16-.25.33-.16.49Zm1.06.57-.08-.08h-.25l-.16.17.25.08.16-.08Zm4.43.33h.32l-.08.17-.08.08h.08v.08l.08.08v.08l.17.17.08-.25v-.41l.08-.16v-.25l.58-.57.16-.08V42l-.08-.08.16-.16h.49v.08l-.08.24-.16.25-.17.33.08.16.09.08h.16l.08-.16.08-.25.09-.32.16-.25.08-.57v-.08l-.74-.09-.24.09-.25.16-.49.16-.65.08-.25.17-.16.16H162l-.24-.16-.17-.08h-.08v-.09l-.33.09.09.24-.17.33h-.24l-.25-.08v-.49h-.33l.08.08V42l-.08.17-.24.08-.17.08-.24.33.08.33h-.17l-.32-.09L159,42.7H159l-.57.49h-.08l-.09.08-.08.25.33.16.33-.08.32.17.33-.33.41-.17.08.33.09.25.24-.08.41-.25.25-.41-.08-.41.32-.25.25-.24h.08l.16-.08h.25l.08.08.17.33.16.08-.08.16-.17.25-.16.33v.16l-.08.16.08-.08H162l.17-.16.16-.08Zm-4.18-2.13.24.66.41.49h.41l.25-.25v-.24l-.25-.17-.49-.24Zm3.36,2,.08-.08v-.17l.08-.16-.16-.08h-.17l-.49.32.08.58.25.24V43.6h.08v-.08l.08-.16.08-.09v-.08Zm.24-1.8.08.08.25.08h.16l.09-.08-.09-.08v-.09l-.08-.08-.16-.08-.25.08Zm.66,2.94h.08v-.08l.08-.08h-.16l-.08.08-.09.17h.09Zm.08,3.45.16.65h.66l.08-.16-.24-.17h-.33l-.08-.16Zm.82,2.62-.16-.08-.25.08H163l-.09.08.09.25.24.08.25-.17Zm.25-3.2h-.17l-.33-.08-.16.33.16.08.17-.08h.24l.17-.17Zm.08-2.21.16-.16v-.33h-.16l-.08-.17-.33-.32-.17-.08v.49l.17.49.08.16.08.08Zm.16-2-.08-.08h-.08l-.08.08-.25.17v.16l-.08.08.08.09v.08l.16-.08h.09l.16-.17Zm-.24,9.43-.17-.08-.08.08v.24h.08l.17-.16Zm0-4.26.16.08H164v-.33l-.16.08-.08.08Zm.65,6.72-.33-.17h-.24v.25h.24Zm-.25-1.07.09.25.08-.25v-.25Zm.33-7.54h.17l.08-.16-.08-.08-.17-.09h-.16l-.08.17.08.08Zm.08-2.37h-.08l-.08.08-.08.24.08.17.08.08.17-.17v-.24Zm.33,8.11-.08-.25-.16-.16-.09.08v.08l.09.17Zm0-3.12-.08.09v.24H165l.09-.08v-.08Zm.49.82-.16-.24h-.33l.17.24.24.17.08-.09Z"/><path class="cls-1" d="M228.18,44,228,45.16l-.25,1.15-.08,1.06-.49,2.13L227,50.57l-.25,1.14-.33,1.07L226,53.84l-.57,1.23-.58,1.07-.57.9-.57,1-.49,1-.74,1-.74.9-.65.9-.58.9-.9.82-1,.82-.82.74-.74.74-.9.57L215,67l-1.8.82-1.07.66-1.23.49-1.14.33-1.07.41-1.14.41-2.46.33-1.07.16L203,70.8H201.8l-1.31-.08-1.23.08-1.07.09L196,70.72h-1.39l-2.13.08h-1.31l-.58-.08h-1.14l-1.07.17h-3.69l-1.06-.09-2.05.17-1.06-.25-.74-.49-.41-.65-.17-1.07V67.45L179,66.22V65l-.08-1.07V62.86l.16-1.15.08-1.31V59.17l-.08-1V57.12l.08-1.23-.08-1.14L179,53.43V51.3l.08-1.14.17-1.15V47.94l.08-1.14V45.65l-.08-1.15-.09-1.23V42.13l.09-1.23-.09-1.15-.08-1.31V32.79L179,31.64V30.57l.16-1.14V28.36l-.08-1.15V26.07l.08-1.15v-3.2l-.08-1.31V19.1l.08-1.06v-2.3l.25-1,.33-.74.57-.41,1-.24,1.15.08,1.15-.08h3.44l1.07.08h2.29l1,.08,3.53.08,2.13-.16,1.06-.08h2.3l2.37.32,1.23.09,1.15.24,1.23.17,1.15.08,1.06.32,1.07.5,1.14.41,1.07.24,1.06.49,1.15.5,1,.49,2,1.31,1.8,1.55.9.82.91.74.73.9.66.9.65.82.66,1,.57.9,1,2.13.65,1.06.41,1.15.41,1.07.41,1.14.41,1.07.25,1.06.24,1,.17,1.06.08,1.15.16,1.31v3.52Zm-48.42,1.56.33.41.41.16v-.08l.08-.16-.33-.33Zm.82,2,.41-.17.41.08.08-.65-.33-.57V45.9l.08-.09-.33-.24-.08.41v.16l.08.17.17.24-.08.33h-.25l-.08-.25-.33.08-.24.33.16.33Zm-.17-3,.17.17.24-.08.49.24h.41l-.24-.41-.58-.24h-.4Zm.41,23.93-.08-.16-.16-.09h-.08v.17l.16.16.08-.08Zm-.24-25.81.08.16.08.09.16-.09v-.24l-.16-.08ZM183,54.58l.25.17.24-.17.09-.16.24-.08.17-.41.08-.5-.49-.49-.09-.49-.49-.16v-.17l.41-.41-.08-.41-.24.09-.5-.17.09-.33.08-.24h.57l-.08-.41v.08l-.25.08-.24-.08V50l-.17-.24-.32-.25-.41.08v-.49l.24-.16v-.17l-.57-.73h-.08v-.09l-.33-.08-.17.33.09.33-.17.49.33.33.25.49-.41.08-.25.16.08.25.33.41.49.33.41-.08.66.65.16.49-.41.17-.24.32-.82-.16-.41.08.08.25.16.08.33.41v.57l-.33.09.08.24.09.33.16.49.16-.74v-.16l.17-.16.16-.25.25.08h.24l.33.08.33-.24h.08l.08.08V54l-.32.24-.17.17Zm-1.88.57.16-.16-.16-.16-.08.08-.09.16.09.08Zm.24-3.27.25.16.25.08.41.09.16-.41-.41-.58-.74.08-.24.33Zm-.24-11.64.16.25h.08l.09-.08v-.25l-.17-.16ZM181.48,60l-.08-.25-.25-.16.08.74h.82l.08-.17-.32-.16Zm.16,3.19.25-.16.08-.33-.25-.08-.24.08-.17-.08-.16.08.08.33ZM181.56,44l-.16.08.16.17h.25l.08-.17-.08-.08Zm0-4.67.25.16.16.25.08.41.41-.41-.41-.41-.16-.25h-.25Zm.33,6.31.33-.33-.25-.41-.16.41-.09.33-.16.16.25.74.24-.08.25-.25-.08-.32.16-.25Zm-.17,13.19-.16.33.16.08.25-.08.33.08.16-.24-.08-.09-.25-.08Zm-.08-11.39.08.25.17.08.08-.08v-.25l-.16-.24Zm.08,2.13h.09l.08.08h-.17Zm.09-15.4.08.33.24.24.09-.33-.17-.32h-.16Zm0,3.36.16.24.25.09v-.33l-.25-.08h-.16ZM183.53,47l-.33-.25-.33-.08-.24-.16-.09.08h-.08l-.16.16-.17.09H182l-.16.16.16.16h.25l.16.25-.08.33-.17.08v.16l-.08.25.33.08.57-.33.41-.49Zm-1.64-13.6.33.49.16-.25.08-.24-.08-.25-.25-.08-.16.08Zm0,21.63v.57l.16.58.08.24.17.09.24-.17.17-.24v-.17l-.17-.08-.24-.33Zm.16,10.41.08-.08.09-.17v-.08l-.17-.08-.16.16v.17Zm.08-23.77.09-.08.08-.16-.08-.08-.17-.08-.08.16v.24Zm.17.17h-.25l-.08.33.16.16.25.16.25-.08.08-.24-.08-.25Zm-.08,13,.24.08.25-.08.08-.17-.16-.16-.25-.08h-.16l-.17.16Zm.24-18-.08-.08-.16.08-.09.08.09.17.08.08.16-.17Zm-.33,30.81.09.08h.16v-.33l-.16-.08-.09.08Zm.25-23.84-.16.08v.41l.24.24.17-.33-.17-.4ZM182.87,68l-.24-.25-.33.09-.08.08v.16l.32-.08Zm.25-24.75-.17-.16-.24-.08-.25.08-.08.25.33.16.08-.08.25.08Zm-.58,16.56-.16.16v.08l.08.16h.17V60Zm.09-20.65.16.41.08.16h.25l.16-.25-.16-.24-.08-.33h-.17Zm.49,5.65-.25-.08-.24.08v.25l.16.24H183l.16-.16.08-.17Zm.08,3.52-.49.5-.08.41.32.32h.25l.16-.32.33-.58.25-.65Zm-.49-9.66.08-.09h.08l.17-.16-.17-.08-.16.08Zm.16,27.77-.16.25.08.24.08-.16ZM183,32.7h.16l.08-.16v-.16h-.08v-.09l-.08.17v.08Zm.08,24.83-.08.08v.17l.16.08h.16l.17-.17-.09-.16Zm.24,10.33-.08-.17H183v.25h.24Zm-.08-12,.16-.08.09-.16-.09-.17h-.16l-.16.17v.16Zm.33,8.77-.08-.33-.25-.16-.08.08v.08l.08.25Zm-.08-3.44.16.16.16-.08v-.16l-.08-.09-.16-.08-.08.08Zm.65.74-.16-.25-.41-.08.24.33.25.16.08-.08Zm0-9.75L184.1,52h-.16l-.17.08-.08.17v.08l.08.08.25-.08Zm-.41-12.87.08.25.17.08.08-.08v-.25l-.16-.25Zm.82,27.86.33.08.08-.08V67l-.33-.17h-.24Zm.49.82-.24.08-.17.16v.17h.09l.24-.17Zm37.37-25.57-.08-.9-.17-1-.33-2.46-.08-1.23-.24-1.14-.25-1.07-.41-1.15-.57-1L220,31.39l-.33-1.06-.57-1.07-.66-1-.65-.9-.9-.82-.82-.9-.74-.82-.9-.66-1-.74-.73-.73-.74-.58-1.15-.65-1.23-.41-1.14-.49-1-.33-2.29-.74L204,19.18,203,19.1l-1.23-.16-1.31-.08-1-.09h-1l-2.29.17L195,18.86h-1.07l-1.14-.09-2.38.09-1.15-.09h-1.14l-1.15.09-1.07.41-.73,1-.33,1.06v.9l.08,1.07v1.31l-.16,1.15.08,1.06.08,1.15-.08,1.23-.08,1.15.08,1.14.08,1.32v.73l-.08,1.31V36l-.08,1.07.08,1.06.08,1.15v1.23l-.08,1.23-.08,1v1.15l.08,1.23v1.14l.08,1,.08,1.14v2.38l-.16,1.07-.08,1.31v2.13l.08,1.14v2.38l-.08,1.15v3.27l.16,1.07.49.66.74.41,1.06.16,1-.08h1.14l1.15.08,1-.08h1.14l1.23.16,1.15-.08h1.06l1.23.16h2.21l3.36-.32,1.15-.09,1.31-.24.74-.17,1.23-.32,1-.41,1-.58L210.4,63l1.15-.57,1-.66,1.81-1.15.82-.81,1.39-1.64.82-.9.65-1,.58-.9.49-.9.57-.9.49-1,.58-1.06.41-1.15.32-1.14.33-1.07.33-2.13.16-1.15.17-1.23ZM187,67.12l-.25-.17-.24.17-.33.08-.08.16.32.25.41-.16.17-.09Zm-.49,2.46-.09-.17h-.16l-.16.17.16.16h.16v-.08ZM188,67.94l-.08-.08h-.25l-.24.16.24.16.25-.08Zm1.72.32-.24.17-.41-.25-.25.58.08.08h.58Zm.74-.9-.16-.16h-.09l-.24.41-.08.41.41-.25Zm1.47,1.23-.08-.33-.32-.16.24-.16.41-.33v-.25l.16-.16-.24-.16h-.33l-.24-.25-.33-.08h-.58l-.16-.17-.16-.08-.17.17.17.16h.16l.25.25L191,67l.33.5v.41l.17.24-.66.08-.33.58h.41l.41.08h.33Zm.66.66-.25-.08h-.24l-.08.08.08.08.24.08Zm.49-1,.25.17.24-.25-.16-.16H193l-.41-.08-.25.24v.25l.25.08.25-.16.16-.09Zm-.16.5-.17-.17-.08.08h-.08l.08.09v.08h.17Zm.16-.9.41-.09.25-.08.33-.08.08.08L194,67l-.33-.58v.33l-.41.16-.25.33-.33.08v.33Zm.74.73-.33.17-.24.24h.41l.16-.24Zm.65,0-.32-.65-.25.08.08.16.09.41.24.33.16-.08Zm.33-1.14.17-.25-.17-.16-.08-.17-.25.08-.08.25.08.16.09.25Zm.74.49-.74.16-.16.66v.08h.08l.16.33.41-.09v-.73Zm1.56,1.39-.09-.08h-.16l-.16-.25v-.33l-.08-.08.08-.08v-.08l.24-.25-.08-.41-.16-.16-.66-.33-.57-.33h-.25l-.08.09.08.24.17.08.32.41.33.33-.08.08v.08l.33.41.08.5-.25.16v.33l.33-.08.25-.09h.24Zm-.49-2.46.08.33.08.16.16.09.17-.09.08-.08.08-.16-.41-.41-.24-.33-.09.08Zm1,2.13-.08-.24h-.33l-.08.16.32.33.09-.08Zm1.06-.74h-.32l-.09.09.17.16h.16l.08-.08Zm.74-.57-.16-.24-.17-.17-.32.08v.25l.08.33.24.16.25-.16Zm.82.66-.16-.17-.09.08-.08.17.08.08H200l.16-.08Zm.74.16-.17-.25-.32.17v.24h.49Zm.65-.57-.16-.25-.08.33.08.24h.08l.08-.08Zm1.56.16.16-.08.09-.16-.17-.17-.16.08-.08.17V68Zm.33,1.39-.08-.16-.17-.08-.08.08v.08l.08.17.17.08.08-.08ZM205,68.18h-.33l-.17.08v.17l.17.08h.16Zm2.37-.65-.08-.08h-.08l-.08.24.08.33.16-.25Zm3.11-49.08.09.08h.32l-.08-.17h-.08l-.25-.16Zm0,1,.09.24h.24l.08-.08v-.16l-.16-.08h-.16Zm1.23.49.09.08H212l.16-.16-.08-.08h-.33Zm.5.41.24.08.17.17h.08l.49.16.08-.16-.08-.09-.33-.41h-.16Zm.49-1.47.08.24.16.08.17-.08h.08l.08-.24-.08-.25-.17-.08-.24.08Zm2,2.62h.41l.09-.08-.09-.09H215v-.08l-.33.08Zm.33-1.4.33.17.33-.08-.33-.17Zm.74.74.08.17.25-.09h.16l.33-.32.16-.09-.08-.08v-.08l-.08-.08-.49.24-.25.09Zm0,.82.08.08v.17l.33.08.16-.08.08-.33-.24-.33h-.25l-.16.17Zm1.06,1.56v-.08l-.08-.09-.16-.08-.17.33.09.16.08.09h.24l.09-.25Zm.5-2.05.08.16v.09l.16.08.08-.08.09-.17-.09-.24h-.32Zm0,2.87.08.08.33-.16.16-.25h.25l.24-.16-.33-.09-.24-.08-.17-.08-.24.57Zm.65.74-.16-.09-.08.09V25l.08.16h.16l.08-.08v-.16Zm.66.32-.08.25-.17.65.25.17h.49l.41-.25-.08-.33h-.17l-.16-.08-.25-.16-.24-.25.16-.08H219l.08-.24v-.09l-.33-.16h-.49l.08.41Zm.08-1.72.16.25.25.33.33.41.08.24.24.41.17.16.24.17-.16.41-.16.33-.41.41-.33.16-.08.41.32.25.33-.09v.58l-.08.08-.08.33-.08.24.41-.08.16.08h.16l.09.82h.08l.08-.41v-.33l.25-.24.16-.25h.33l.24-.08.58.25.24.24.17.25v.24l-.33.33v.17l.49.08.49-.08.33.65.41.66v-.17l.08-.32.08-.5-.08-.08-.24-.08-.41-.25-.17-.41-.33-.16v-.9l-.24-.25-.41-.24-.25-.41-.24.08L221.3,27l-.24.08-.17-.25h-.33l-.08.09h-.08l-.16-.25.08-.25.16-.08.17-.16-.09-.08h-.16V25.9l-.08-.24.82-.41.32-.41H221l-.49.08-.08-.08h-.16l-.09-.41-.24-.33v-.57l-.58-.25-.08-.08v-.08h-.16l-.41-.09Zm1.88,1.07.17.08.24-.25v-.08l-.16-.08h-.16l-.09.16Zm1.15,7.29v.08l.41.41.74-.16.24-.17v-.49l.17-.49v-.08l-.41-.49-.33-.17-.25.17-.16.16-.16.08-.25.08h-.16l.24-.32L222,30l.16-.16H222l-.49-.5v.09l-.33.24v.41h-.08l-.08.25-.17.32.17.5.24.16.25-.08h.08v.24ZM221,25.9v.17l.17.08h.16V25.9Zm.82,2.54v-.08l-.24.16.08.33.16.08.08-.08.09-.24ZM221.63,26l.16.33.41.58.08.08.17.24.16.33.08-.49v-.41l-.16-.74-.16-.08-.17-.16-.49.08Zm1.47,7.38.41-.25-.16-.24-.33-.33-.16.33.08.16v.25l.08.08.08.49L223,34v.25l.41-.41Zm.09-5.08.08.16.24-.08.09-.08v-.17l-.25-.08-.16-.08ZM225.32,32l-.17-.41-.49-.5h-.16l-.17.09h-.24l-.17-.09-.16.09.08.16.16.16.17.33-.25.17h-.24l-.08.16-.17.25.25.16.65-.08.66-.25Zm-1.07,4.75-.08-.08-.25.08-.32.16.32.08.25-.08Zm-.16,1-.17-.08-.16.08-.08.25.08.16H224l.09-.08Zm-.33-8.85.08.08.08.17.08.24v.09l.09.08L224,30l.58-.49-.17-.66v-.08h-.08l-.33-.16Zm.9,4.67-.08-.16-.25-.33-.08-.16-.33.16-.08.08.08.17.17.08.32.24.17.09.08.08.08-.08h.08Zm.08-3.6-.16.24-.17.17h-.24l-.08.24.16.08.25-.16h.16l.33-.08.16-.33-.08-.16v-.08Zm-.41,5h.49l.09.24.16.25.16.16.5.17.08-.17-.25-.24-.41-.17-.16-.24-.17-.33-.16-.08-.08-.09-.25.09-.16.08v.24Zm.58,2.78-.17-.16-.08.08v.16l.08.09Zm.24-1.56H225l-.08.33-.09.49.41-.41v-.32Zm.17,5.66-.09-.25h-.32l.08.25.24.16Zm.16-9.42-.16.49.16.16.16.08.17-.16V32.7l-.08-.16ZM226,39.5l-.08-.24V39l-.16.17-.09.16h-.08l-.16.41.16.08h.17Zm.66,2.38-.17-.16h-.24l.16.24.25.25Zm.08-3.69-.08-.08-.17-.08-.08.08v.49l.25-.08Z"/><path class="cls-1" d="M286.76,65.23l-.08,1.07v1l-.08,1.15-.16,1.31-.82.82-1.23.16h-1.31l-1.23-.24-.74-.74L281,68.67l.08-1.14L281,66.3V65.23L281,64V61.55l-.17-2.3L281,58l.08-1.14L281,55.81V52.7l-.09-1.31-.08-1.4.08-1.14.17-1.07-.25-1.07-.49-.73-.65-.33-1-.08H277.5L275,45.4h-6.71l-2.38-.16-2.3.16h-1.22l-1.23.09h-4.51l-1.23.16h-1.23l-2.05-.08-2.45-.17h-1.23l-1.07.33-.74.49-.41.58v1l.09,1.07.08,1.14-.08,1.23-.17,1.15L246,53.43l.08,1.23L246,55.89V57l.08,1.15.17,1.14-.09,1.07-.08,1.23v1.14L246.2,64v4.43l-.41,1.23-.82.9-1.14.41-1.15-.08-1.07-.33-.65-.41-.41-.66-.25-1.06V67.36l.09-1.14.16-1.07-.08-1.06-.17-1.15V61.63l.17-1.23.08-1.07-.08-1V55.81l-.17-1.06V53.68l.09-1.23V47.94l-.09-1.14.09-1.31.08-1.23-.08-1.07V41l.08-1.23V38.6l-.08-1.06V36.39l.08-1.23V33l-.08-1.23V30.65l.08-1.14v-2.3l.08-1.06-.08-1.23V23.77l.08-1,.08-1.15-.08-1.23-.16-1.06V18.2l.08-1.31-.08-1.23.24-1,.49-.74.74-.41,1.07-.25,1.06.17.9.33.66.41.41.57.16,1v3.44l.08,1.23-.08,1.23L246,22.79,246.2,24l.09.74v1.39l-.17,1.15L246,28.52l.16,1.15.09,1.07V31.8l-.09,1.31v3.44L246,37.78l.16,1.15.41.66.74.32,1.07.17h7.21l2-.08,1.23-.09h3.45l1.31.09H267l2.37.16h1.31l.74-.08h2.71l2-.08h2.46l1.15-.33.82-.74.33-1.15.08-1.14L281,35.49l-.09-1.07-.08-1.23V31.88l.08-1.14v-2.3l.09-1.23V25.08l.08-1.14.08-1.23L281,21.64l-.09-1.06.09-1.23L280.86,18l.09-1.15V15.66l.24-1.07.41-.65.58-.41,1-.16h1.15l1,.16.74.41.41.65.16,1v1.15L286.52,18l.08,1.15.08,1.23-.08,1.23v2.29l-.08,1.23v4.43l.08,1.31.08,1.15v2.29l-.08,1v1.07l.08,1.23-.08,1.23v1.06l.08,1.23v5.57l.08,1.23-.08,1.07-.08,1.14-.08,1.32.08,1.06-.08,1.07.08,1.23.16,1.22-.08,1L286.6,58l.08,1.23.08,1.15-.08,1.15.08,1.22ZM241.21,46l.4.24.09-.08V46l-.33-.33h-.49Zm.49,1.72.41-.17.41.17.16-.74-.33-.57-.08-.41.08-.08-.33-.25-.08.41v.16l.25.49-.08.25h-.25l-.08-.25-.33.09-.24.32.16.33Zm-.17-3,.17.08h.24l.58.16h.32l-.24-.33-.58-.24h-.41Zm.17-1.89.08.08.16.09.17-.17-.09-.16h-.24Zm2.7,11.06v.41l-.41.41.08.17.25.16.24-.16.09-.17.24-.08.17-.41.08-.49-.49-.49-.09-.49-.49-.25v-.16l.41-.41-.08-.41-.25.08-.49-.16.09-.25.08-.33h.57V50.4l-.08.08-.25.09-.24-.09v-.32l-.17-.25-.32-.25-.41.09v-.49l.24-.25v-.16l-.57-.66-.08-.08V48l-.33-.09-.17.33.09.41-.17.41.33.41.25.49-.41.08-.33.17.08.24.41.41.49.33.41-.08.33.33.33.41.16.41-.41.16-.24.33-.5-.08-.32-.09-.41.09.08.24.16.08.25.5V54l-.25.08.17.66.16.4.08-.65v-.16l.17-.25.24-.16h.17l.24.08H244l.33-.25v.08ZM242,55.4h.17l.16-.16-.16-.17-.17.08-.08.09Zm.33-3.28.33.09.25.08.41.08.08-.41-.41-.57-.66.08-.24.33Zm-.24,7.71.16.73.57.08h.25l.08-.16-.33-.16-.32-.09-.17-.24Zm.82,3.52L243,63l-.25-.08-.24.08-.25-.08-.08.08.08.33.33.16Zm-.66-23.11.08.25h.17l.08-.08v-.25l-.17-.16Zm.41,3.77-.08.08.08.17.16.08H243l.08-.17L243,44Zm.08,15.08-.16.33.16.16.25-.08h.33l.24-.17-.16-.16h-.25ZM243,45.73l.33-.33-.25-.41-.08.41-.17.33-.16.17.25.73.24-.08.25-.24v-.25l.08-.33Zm-.25-6.47.49.49v.41l.41-.49-.41-.33-.16-.25-.25-.08Zm0,8.36.17.24H243l.08-.08v-.25l-.16-.16Zm.25,7.53-.08.66.16.57.08.25.17.08.24-.16.25-.25v-.16l-.25-.08-.24-.33Zm.08,10.57.08-.16V65.4l-.08-.08-.16.08v.32l.08.09ZM243,37.54l.16.16.33.17-.08-.33-.25-.17Zm1.72,9.58-.33-.32-.33-.09-.32-.16-.09.08-.24.17-.17.08h-.16L243,47l.08.17h.25l.24.24-.16.33-.17.08V48l-.08.32h.33l.57-.32.49-.5Zm-1.64-12.7.25.25.08-.33-.17-.33h-.08l-.08.09Zm.08,7.21h.17l.08-.08.08-.16-.08-.08-.17-.08-.16.16v.08Zm0-8.35.08.24.25.25.16-.25.09-.24-.09-.25-.24-.08-.17.08Zm.66,8.6-.41-.08-.17.08-.08.25.08.16.33.16.25-.08.08-.16ZM243.25,55l.25.08.25-.08.08-.16-.08-.25h-.5l-.08.17Zm.66,13.44-.33-.25-.33.08-.08.17.08.08h.25Zm-.41-24.58-.08.08-.08.41.24.24.25-.41-.17-.32Zm.25-7.13h-.25l-.08.16v.17h.16l.17-.17Zm-.09,23.76v-.16l-.08-.25-.08.16h-.08v.17l.08.08Zm.58-17.12-.09-.25-.24-.08-.25.08-.16.25v.08l.41.16v-.08h.24Zm-.58,23.76.09.24.08-.16v-.33Zm.74-18.6-.57.49-.08.41.32.33h.33l.08-.33.33-.57.33-.74ZM244,44.83l-.16.08v.25l.16.24h.25l.16-.08v-.24l-.08-.17Zm-.08-6.23h.16l.08-.08.17-.08-.17-.16-.16.08Zm0,.58.08.41.08.16h.25l.16-.25-.16-.24-.08-.33-.17-.08Zm.24,18.92.17.09.16-.09.08-.08-.08-.16-.16-.08h-.17l-.08.16Zm.41-2.37h-.16l-.16.08v.25l.16.08.16-.08.09-.17Zm0,9-.24-.16h-.08v.16l.08.25h.24Zm-.24-32.2h.16l.08-.08v-.25h-.08l-.08.08v.09Zm.24,29,.09.16h.08l.16-.08v-.17l-.16-.16-.17.08Zm.74.73-.24-.24-.41-.08.24.32.25.25.08-.16Zm0-9.91-.08-.08-.16-.08-.17.08-.08.16v.16h.08l.25-.08Zm0-13-.08-.25-.16.25.08.25.08.08.08-.08ZM261.44,43l-.16-.09h-.08v.25l.16.08v-.08l.08-.08Zm1.64-1-.16-.16-.16.08v.33l.16.08.16-.16Zm1,.49-.09-.16h-.24l-.08.08.08.17H264Zm1.14-.65.33.08.17-.08-.09-.17-.24-.24-.33.08Zm.58.82h-.33l-.16.24.16.17.25-.17Zm1.88-.66-.08-.24-.25-.17-.24.17-.25.08-.08.16.33.25.33-.17Zm-.57,2h-.17l-.16.16.08.09.25.08Zm1.47-1.56h-.32l-.25.17.33.16.24-.08Zm1.72.41-.16.17-.41-.25-.33.58.08.08h.66ZM271,42,271,41.8h-.08l-.25.33-.08.49.41-.25Zm1.48,1.23-.09-.33-.24-.16.24-.16.33-.33.08-.25.17-.24-.33-.09h-.33l-.16-.32h-1l-.08-.25H271l-.16.17.08.16H271l.33.16h.33l.24.41.08.49.17.25-.66.08-.33.58h.41l.41.08h.33Zm.73.66-.24-.08h-.25l-.08.08v.08l.25.08Zm.49-1L274,43l.17-.17-.17-.24-.25.08h-.08l-.08-.08h-.33l-.32.32L273,43h.24l.25-.17Zm-.16.5-.16-.17h-.08l-.17.08.17.17h.08Zm-.24-1.07.4.16.33-.16.33-.08h.41l-.08-.58-.33-.57v.33l-.41.16-.25.33-.32.08Zm1.14,1-.08-.08-.24.17-.25.24h.41l.16-.24Zm.66-.08-.17-.33-.16-.41-.25.17.09.16v.41l.24.33.17-.08Zm.08-1,.25-.17.08-.24-.08-.17-.17-.16-.16.08-.08.25V42Zm.9.33-.65.16-.17.66v.08l.25.33.33-.17v-.24l.08-.5Zm1.56,1.31-.17-.08-.16-.17v-.33l-.08-.08.08-.08V43l.16-.17v-.08l-.08-.41-.16-.16-.57-.33-.82-.41-.09.16v.25L276,42l.33.33.24.41v.16l.25.41.16.5-.24.16v.33l.24-.09.33-.08h.25l.08-.16Zm0-1.89.16-.08v-.16l-.41-.41-.16-.33-.08.08h-.08l.08.41.16.33V42l.25.08Zm.49,1.4h-.41v.16l.16.16.09.17.08-.17.08-.08Zm1.15-.33-.08-.17H279l-.08.09V43l.16.08h.17Zm.65-.74-.08-.25-.24-.16-.25.08-.08.25.08.33.33.16.24-.16Zm.9.57-.08-.08h-.08l-.08.08-.08.17h.08l.08.08.16-.08Zm.74.25-.24-.25L281,43v.32h.49Zm.08-8.11.33.16.25.25-.33.73H282l.25-.24.16-.25.57-.24.58.24.33.49.08.58-.17.24h-.24l-.25.25.41.25.49.16v.66l.09.73.49-.73-.41-.66v-.41l-.25-.25.17-.32.16-.25.08-.16V35.9l-.24-.41.08-.41-.25-.08-.16-.17-.25-.08-.08-.33-.25-.16h-.08V34l.17-.16h.16l.25-.08-.17-.17.17-.32.41.08.49.08.49-.16-.82-.49-.08-.09v-.08l.16-.33v-.41l.33-.41-.16-.49.08-.16-.17-.08-.24-.25-.25.16L284,32l-.17.49L284,33l-.33.16-.33.25-.08-.08h-.08l-.17.08h-.24l-.33-.08-.24.24.08.41.32.17v.08l-.4.41Zm.25,3.52h.33l-.08.08-.09.41v.17l.25.49.65.16.33-.08.08-.33.09-.08.32-.49-.16-.49L283.4,38l-.41.16-.24-.08h-.17l-.16-.08.33-.25.49-.24-.25-.66V37h-.41l-.16.41-.08-.08-.49.49-.08.5Zm.25,4.34.08-.08v-.24l-.17-.25-.08.33.08.24Zm.08-10.57.08.33.33.33h.49l.16-.25-.16-.32-.17-.25.09-.33.24.17.25-.09-.08-.41-.33-.32-.17.32.09.33-.25.17-.25.08Zm.65,12.21h-.24l-.41.08.32.17h.25l.08-.17Zm-.33,1-.08-.09-.16.09-.08.16v.16l.24.09.08-.09Zm-.16-14.18.08.08h.08l.17-.08V31h-.17l-.16.08Zm.49,10.32-.08-.49.41-.16-.16-.41-.09-.16-.08-.09-.16.25v.33l-.08.08v.08l-.09.49-.16.41Zm-.16-12.37.08.08.25-.08.16-.16-.08-.17-.17-.08-.24.08Zm.82.66-.58.16h-.16v.17l.33.08.24-.08.25.24.25.08Zm-.17,19.66-.08-.24H283l.09.24.24.17Zm-.24-4.09v.16l.08.08.08-.08V45.4Zm.08-20.57h.16l.09-.08.24-.49-.41-.5-.08.58Zm0,1.64.16.16.17.25v-.33l-.08-.16h-.17Zm.25,10.08.16-.17v-.33l-.25.09-.08.24v.17Zm-.09,6-.08.16.17.17h.16l.16.08.25.74.41.24.16-.16-.16-.33-.33-.16L284,42.7l-.08-.08.08-.17v-.16h-.08l-.17.08-.08.17h-.08Zm1.4-1.89.41-.16v-.41l-.17-.33-.08-.24h-.16l-.17-.09h-.24l-.08-.16h-.17v.16l.08.25V40l-.32.16-.17-.08-.08.08-.25.16.17.17.57.24Zm-1.31-17.29.24.25.08-.16-.08-.09-.08-.16h-.08ZM284,41.23v-.17l-.17-.08-.32.16v.17l.16.08.25.33.16.24.08-.08h.08l-.16-.33Zm-.49,3.68.41-.33.08-.24-.08-.17h.16v-.08l-.08-.16-.08-.08-.09.08V44l.09.16h-.17l-.08.33Zm.08-22.53.08.08.16-.08.09-.08-.09-.17-.08-.08-.16.08Zm.57,5-.24-.08-.17.16-.16.25.08.24.16.08.33-.08.08-.33Zm0,19.58-.33.33-.24.41h.33l.24-.25Zm.33-13.11h-.16l-.09.08V34l.17.17.16-.17Zm-.16-6.64.24.25.41.08.16.08.09-.16-.33-.25-.33-.16h-.16Zm.32,22.54-.16-.25h-.08l-.08.08.08.17.24.24Zm-.08-23.27.25.24v-.33l-.25-.24Zm.08-4.43.09.16.08-.08v-.08l.08-.16h-.16Zm0,2.13.17.17H285l.16-.09.09-.24-.17-.17h-.24l-.17.17Zm1.15,14.67-.08-.08-.25-.08-.24.16H285l-.24-.08-.17.16.09.25.32-.09.08.09h.33ZM285,46.39l-.24-.25-.08.08-.09.17v.24h.25ZM285,34.1l-.24.16V35.9l.49-.66.24-.57-.08-.41Zm.16-5.41.09-.17-.09-.16H285l-.16.08-.08.17v.16h.08Zm-.32,3.85.08.08.16.08.17-.08.08-.08-.17-.16H285Zm.08,4.42h.33V36.8l-.09-.16-.16-.17-.08.17-.08.08Zm-.08,1.48.65-.08.17-.66v-.08l-.25-.25-.33.09v.65Zm.32,3.19.25-.08.08-.24-.08-.17-.16-.16-.17.16-.16.25Zm.5,1.15-.09-.08-.32.16V43l.16.08.16-.08.09-.17Z"/><path class="cls-1" d="M352.88,69.74l-.57.82-1.07.24H350l-1.15-.08-.82-.24-.82-.58-.74-1.06-.33-1-.49-.91-.57-1.06-.49-1.23-.41-1.07-.41-1-.41-.82-.33-1-.57-1.07-.66-1-.57-.57-.9-.33-1.15-.17h-1.07L337,57.61h-3.45l-1.14-.08h-2.21l-2.46.08-1.23-.08-1.07-.08h-1.06l-1.23.16-2.21-.16h-1.32l-1.14.08-2.21-.08-1,.08h-1.06l-1.15-.16h-1.15l-1.31.08-1.23.16-.82.33-.57.66-.49,1-.58,1.31-.24.66-.57,1.14-.5.9-.57,1-.41,1.06-.25,1.07-.49,1.06-.49,1-.82.82-.65.57-.82.49L300,71h-1.23l-1.15-.41-.65-.82.24-1.07.66-1,.82-2,.49-1.06.57-1.15.5-1.14.32-1,.41-.9,1.15-2.13.33-1,.41-1,.49-1.06.41-1.07.57-1.06L304.7,52l.41-1,1.15-2.13.49-1.07.41-1,.57-1.23.33-.66,1-2.29.33-1.07,1.48-3.19.57-1,.41-1,.49-1.14.33-.66.49-1.23.33-1.31L314.53,30l.5-1,.57-1,.49-1.06.41-1.07.33-1,.41-1,.49-.91.57-1.14.5-1.15.41-1.07.4-1,.41-1.06.5-1,.57-1.06.74-1.07.57-.65.74-.33,1.15-.08,2.29.16.9.41.66.66.65.82.33,1,.41,1.15,1.07,2.13.49,1.14.49,1.23,1,1.72.49,1.07.33,1.06.41,1.07.49,1,.49,1.15.5,1.07.82,2,.49,1.07.49,1,.9,2.21.49.9.66,1.07.41,1.15.41,1,.57,1.06.49,1,.82,2.13.41,1,1.15,2.13.49,1.07.41,1.14.33,1,.32.9.5,1,.65,1.07.49,1.14.49,1.07.5,1.15.49,1,.41.9.49.9.49,1.23.33,1.07.33,1,.41,1,.49,1.15.65,1.15.5,1.06.49,1Zm-52-4.26-.16-.08-.09.24.09.17h.08l.08-.09Zm.66-3.36.16.16h.08l.17-.32-.09-.09h-.16l-.16.09Zm.32,4-.16-.08-.08.25.16.24.08-.24Zm.74-2.29-.41.16-.33.17.09.16H302l.41-.08Zm-.57-2.7.16.24.25.08.08-.08V61.3l-.16-.08Zm.41,1.06-.17.17v.08h.17l.08-.08V62.2Zm.41-.33.49-.08.16-.24v-.09l-.08-.08-.24.17Zm1.47-4-.33.08-.08.25-.16.16-.16.33-.41.24h.57l.08-.49.49.08Zm-.73,5.82-.09-.25h-.16l-.16.33.16.16Zm.65-2.54-.16-.33v-.33l.08-.25V60l-.25-.08h-.16l-.08.08v.16l.16.08.08.25-.08.16v.5l.25.32h.16Zm.33-3.69.24.08.25-.24V57.2h.08l.49-.24.09-.49-.09-.41h-.41l-.16-.17-.16-.08-.09-.16h.82v-.09l.09-.24V55l-.33-.16-.33.32v-.08L305,55l-.49.25-.33.41v.24l.24.17v.08l-.32.24v.09L304,57h.09Zm.24,1.39-.08-.08-.16-.08-.17.16V59l.17.65h.16v-.33l.08-.32Zm1.48-.82-.08-.08-.17-.08-.16-.17-.08-.16h-.08l-.09.16v.17l-.16.24-.25-.08-.16-.08H305l-.25.08v.25l.41.41.58.24H306l.17-.32.08-.33ZM309,52.94l-.16-.41-.24-.32V52l.24-.16.16-.33.5-.17v-.49l.08-.16v-.17l-.08-.24h-.33l-.66,1.06-.32.33-.09.41-.32.08h-.41l-.09-.08h-.16L307,52l-.33-.25-.33.17-.08.33.24.32-1.14.33.24.25.09.32-.5.5V54l.33-.17.25-.16.57.08.33.41.08.58-.16.4-.17.17-.24-.08-.33.08.25.41.32.33-.49,1.14.74-.32-.08-.74.16-.33-.08-.33.24-.16.25-.08.16-.17.09-.24.08-.08-.08-.41.16-.33-.16-.17v-.16l-.17-.16.08-.33-.24-.25v-.08l.08-.16.16-.09.25.09.16.08V52.7l-.08-.17.33-.16.25.16.41.25Zm-3.11,6.39h-.24l-.17.17v.33h.25l.16-.17Zm.25-4.34.24-.08.08-.25-.24-.08-.16.33Zm1.06,2.62-.16-.16-.33.08-.08-.08h-.08l-.17-.16-.24.08.08.24h.24v.08h.09l.24.17.33-.08.08-.09Zm.33-1-.08-.33-.33-.08v.16l-.08.09-.17.32-.32.25.57.16.41-.49Zm-.66-5.49.17.41.41.25.16-.17V51.3l.08-.32.09-.25.24.25.17.08.08-.41-.17-.41-.24.24-.08.25-.25.08H307Zm.66,4.51-.08-.17h-.08l-.09.08-.08.17.17.16h.08l.08-.08Zm-.08-5.58.08.09v.08h.25l.08-.17v-.16l-.08-.08-.17.08Zm1.23,3.69-.25-.33-.24.09-.17.24-.24.49-.25.58.33-.17v.09h.33l.08-.09-.08-.08.49-.49Zm-.74-.49h.16V53l-.16-.08V53h-.08v.17Zm.33-3.85.16.16.33.08.08.25.16.16v-.65l-.49-.16h-.16Zm.33-.74h.24l.16-.16.09-.17-.17-.08h-.16l-.16.17Zm.49,3.61.16.08.08-.08v-.17h-.08l-.16-.08-.09.08v.09Zm.32,1.72.33.08.08-.08v-.17l-.24-.24-.33.08Zm.58.82h-.33l-.16.24.08.17h.08l.16-.17Zm.24-6.89.25-.24v-.17l-.16-.16h-.25l-.16.16-.09.25.17.16Zm-.08-1.23.08.25.09-.25v-.24h-.17Zm.58,2.3.24-.08v-.17l-.08-.08h-.16l-.25.25.08.08Zm0-1.56.08.33.33.25.08.08.16-.08-.16-.33-.25-.25-.16-.08Zm.08-2.37.08.08.16-.08.33-.25-.08-.57-.33.41Zm1,8.85-.24-.17-.25.17-.25.08-.08.16.25.25.41-.17.16-.08Zm-.49,2.45-.08-.16h-.08l-.17.08v.08l.08.09.17.08.08-.08Zm27-5.24-.08-1-.25-.9-1-2.14-.5-1.06L336,44.91l-.49-1.06-.57-1-.41-1.06L334,40.73l-.41-1-.49-1-.41-1.07-.41-1.15-.58-1.06-.41-1.15-.65-2-.58-1.07-.65-1-.82-2.13-.57-1L327.65,26l-.33-1.14-.49-1.07-.5-1-.41-1-.65-.82h-.74l-.65.9L323.47,23l-.91,1.81-.4,1.23-.41,1.06-.66,1-.49,1-.41,1-1,2.13-.5,1.07-.49,1.14-.33,1.15-.41,1.07-.32,1.06-.49,1-.58,1-.49,1.15L314.94,43l-.57,1-1,2.13-.49,1.15-.33,1-.49,1.07-.58,1.06-.32,1.07.57.73,1.06.17H314l1.23.08h3.36l1.07-.08h1.14l1.15.16,2.54-.16.74.08h1.31l4.59.16,2.37-.16,1.07-.16h1.23l1.06.08,1-.25Zm-26.88-4.43-.16.25.16.33.08-.33Zm.17-2.62.16.17.08-.09v-.24l-.08-.08-.16.08Zm.49-1.06.08.16v.08h.16l.08-.08V43l-.08-.08h-.16Zm.41,1.88h-.17l-.08.17.08.16.17.08h.16l.16-.16-.08-.17Zm.32,9.84-.08-.09h-.24l-.25.17.33.16.24-.08Zm.25-11.31h.16l.09-.08.08-.17-.17-.08Zm1.47,11.63-.24.17L314,55l-.33.57.09.09h.57Zm.74-.9-.08-.16H315l-.17.33-.08.49.41-.25Zm0-.57.33.16h.33l.24.41v.49l.25.25.25-.16.32-.33v-.25l.17-.16-.25-.17h-.33l-.16-.32h-1l-.09-.25h-.24l-.08.08v.08l.08.17Zm1.48,1.8-.08-.33-.33-.16-.58.08-.41.57h.5l.32.09h.41Zm.65.66-.24-.09h-.25v.17l.25.08Zm.58-1,.24.08.17-.16-.17-.24-.24.08h-.09l-.08-.08h-.33l-.32.32v.17h.32l.25-.17Zm-.17.49-.16-.08-.08-.08h-.09l-.08.08.17.17h.08ZM319,54.42v.08l.08-.08-.16-.58-.25-.57-.08.16v.17l-.33.16-.24.33-.33.08-.08.33.32.16.41-.16.33-.08Zm-.25,1.06-.08-.08-.33.16-.16.25h.41l.16-.25Zm.58-.08-.17-.33-.16-.41-.16.17.08.16v.41l.24.33.17-.08Zm.16-1,.16-.17.17-.24-.08-.17-.17-.16-.24.08-.08.25.08.16Zm.9.33-.65.16-.17.65v.09l.25.32.33-.16v-.74Zm1.56,1.39-.16-.17-.25-.16V55.4l.08-.08v-.08l.17-.17V55l-.09-.41-.16-.16-.57-.33-.82-.41-.09.16v.25l.17.08.33.33.32.41v.16l.25.41.16.49-.24.17v.33l.24-.09.33-.08h.17Zm-.49-2.46.08.33.08.16.17.08.32-.16v-.16l-.41-.41-.24-.33v.08h-.08Zm1,2.13-.08-.25H322v.17l.08.16.17.17.08-.17Zm1.15-.57-.08-.17h-.33l-.08.08.08.09.16.08h.08Zm.65-.74-.08-.25-.24-.16-.25.08-.08.25.08.33.33.16.16-.16ZM325,55h-.08l-.08.08-.08.17.08.08.16-.08Zm.82.33-.24-.25-.33.08v.33h.49Zm.66-.57-.25-.25-.08.33.08.24h.08l.09-.08Zm1.47.16.17-.08.08-.17V54.5h-.16l-.17.08-.08.17Zm.33,1.39-.08-.16-.08-.08-.17.16.25.25.08-.09ZM329.86,55l-.08-.08-.33.16v.17l.08.08.25-.08.08-.17Zm0-29.91.16.25.25.08v-.49l-.08-.16h-.25l-.08.16Zm.57.82-.24-.16h-.09l-.08.08.17.25.32.16Zm.08-1.8.17-.08v-.08l-.08-.17h-.09Zm.74,4.59.25.08h.24l-.16-.25h-.25l-.08.09Zm.08-.66.08.08h.17V28l.08-.08-.08-.08h-.08l-.17.08Zm.58,2h-.25v.25l.33.08.33.16.16.25.16-.49Zm0,1.06-.25-.08v.25l.16.16H332v-.16Zm.32,23.28-.08-.09h-.08l-.08.25.08.33.16-.25Zm.17-21.06h-.17l-.08.08v.16l.08.08h.17l.08-.08v-.16Zm0-4.26.08.24.08-.08V29.1l.08-.17h-.16Zm.41.41h-.17l-.08.32.25.25.24.16.09-.08.08-.33-.25-.16Zm-.25,6.8.41.16.41.08v-.16l-.08-.17-.33-.08Zm.08-1.4.09.25.16.08.25-.08.49-.08.24-.08-.33-.25H333Zm.25-2.86v.08l.16-.08.09-.09v-.16l-.09-.08-.16.08-.08.08Zm.33.08-.17.16v.25l.49.16.25-.16v-.25l-.25-.16Zm.32,2.37h.17l.08-.08v-.16l-.08-.08-.17.08h-.08l-.08.16Zm-.16,2.87.25.25.32.08.33-.33h.41l-.16-.65-.58-.33-.16-.33.08-.08-.33-.08v.32l.09.17.08.08.24.16.09.33-.17.08-.16-.16-.25.16Zm.25-7.86.16.16h.08l.08-.08-.08-.17-.24-.16Zm.49,3.52-.25.16v.25h.41v-.08l.25-.09-.08-.16-.17-.08Zm.33,1-.33-.24-.17.16.17.33.33.16Zm.32,1.64v-.24l-.41.16.09-.41-.33-.25v.33l.08.41-.08.08v.09l.49.57.16-.17.17-.32ZM337,39.09h-.17l-.16-.24-.25-.16L336,38.6l-.24.25-.08-.08v-.08l-.09-.25.09-.25V38h-.09l-.73-.33v-.08h-.41V38l.24.24v.5l.41.16.41.33-.33.24-.16.25.16.16.41.25.58.08.32-.25.33.17.41.16.33.33-.25.25-.08.41-.82.16-.24.24.16.17h.16l.41.24.17.41-.17.25.17.16.16.25.33.33-.16-.66h-.09V42.7l.17-.49.24-.08h.17l.33-.17.16-.24h.16l.17.24-.25.49.08.17.33.08.16-.25v-.24l.17-.08v-.41l-.17-.41-.32-.17-.25-.08-.33-.41h-.41v-.08h-.08l.17-.49-.17-.33-.24.16H337l-.09-.24v-.25l.17-.08.24-.08v-.08l-.08-.33Zm-2.3-4.58.08.24.25.08h.16l.09-.24v-.17l-.17-.08h-.24Zm.58,1.39-.09.08v.08l-.08.17-.33.32.17.09h.24l.25.08v.33l-.08.16.08.16v.25l.25-.08.41-.58.16-.57V36l-.41-.08ZM335,37.29h.08l.08-.16L335.1,37l-.24-.08v.25ZM336.17,41h.57l.33-.16v-.33l-.58-.33-.57.33-.16.41Zm.32-3.69-.24.58.08.41.41.16.25-.16V36.72Zm.74,6.31-.16-.08-.08.08v.17l.08.08.16-.08v-.09l.08-.08Zm1-1.06-.17.08-.24.08V43L338,43h.25l.16-.17V42.7Zm.49,2,.16-.24L339,44l-.08-.24-.16.08-.41-.25-.49-.24.24.49.33.49Zm-.41-4.09.08.08h.08l.17-.17.08-.16-.17-.08h-.08l-.16.16Zm1.64,7.21h-.33l-.25.08-.24-.17h-.25l.41.58.66-.33Zm-.58-4.43-.16.08-.08.09v.16l.08.08h.16l.08-.16v-.17Zm.08,3.36h.09l-.41.08V47l.16.08.16-.16.33-.08.08-.25-.16-.08Zm.58-1.23.16-.08v-.16l-.16-.17-.17.08-.08.09v.08l.08.16Zm.16,1.89-.08.08v.24h.25v-.16Zm.66,2.86-.08-.24h-.25l-.16.16h-.17l-.08.17.16.24.33-.08Zm.65-2.13.08.17h.17l.08-.17-.16-.16h-.17Zm.41,3.94-.08-.17h-.16l-.09.09.09.16V52h.16V52Zm.17-3.36.32.08v-.25l-.32-.08-.33.08Zm.73,2.37-.16-.24-.25-.08v.16l.17.16Zm.09,2,.08.25.08-.25-.16-.24Zm.57,1h-.33l-.24.08v.16l.08.08.24-.08Z"/><path class="cls-1" d="M509,56.55l-.08,1.06-.25,1-.82,2.29-.32,1L507,62.94l-.58,1-1.64,1.8-1.55,1.56-.91.58-1,.49-1,.57-1.07.41-1,.33-1.07.41-1.14.24-1.15.33-2.38.57-1,.17-2.21.16-1.15.17h-1.15l-1.23-.09-2.21.09-2.21-.25-1.15-.08-1.14-.17L477.91,71l-1.07-.33-1.15-.24L474.55,70l-1-.41-2-1-1.07-.49-1.06-.57-.9-.82-1-.66-.9-.57-.74-.74-.82-.9-.81-1-.5-1.07-.57-.82-.41-.9.33-1.15.82-.82,1-.57,1.07-.24,1.14.24.9.66.66.9.74.9.82.9.9.74,1,.74L473,63l2,1,1,.5,1,.41,1.23.24,2.13.49,3.36.49h1.23l1,.17h1.07l1.39-.08,1.07-.17,1-.16,1.15-.08,1.23-.17,1.06-.32,1-.41,1.14-.5L497,64l1.06-.32.91-.58,1.72-1.55.73-1,.5-1,.49-.9.41-1.07.16-1.14-.08-1.23L502.73,54l-.16-1-.33-1-.49-1.15-.57-.9-.66-.82-.82-.82-.9-.65-1.06-.49-2.22-.9-1-.33-1.15-.25-1.23-.41L491,44.91l-1-.33-1-.24-1.15-.08L486.76,44l-1.23-.16-1.23-.08-1.15-.25L482,43.19,480.77,43l-1.14-.25-1.07-.33-1.14-.24-1.23-.33L475,41.47,474,41.06l-3-1.31-1.06-.57-.9-.66-1.64-1.47-.82-.91-.74-1.06L465.12,34l-.73-1.88L464.06,31l-.16-2.62.08-1.15.16-1.06.17-1.15.24-1.31.41-1.07,1-2,.82-1,.9-.9.82-.9,1.64-1.31L471,16l3.45-1.31,1.88-.66,1.23-.49,1.15-.33L480,13l2.45-.33h1l1.14.08h1.23l2.38-.16,1.06.16,1,.25,1.06.24,1.15.08,1.15.25,1.06.25,1.15.16,1.23.41,1.8.9,1,.57,1,.5,1,.57.9.74.9.65.82.82.82.9.66.74.41.9v.82L506,23l-.74.66-1,.57-1.15.33-1.22-.33-1.07-.65-.82-.82-.9-.82-.9-.74-1-.65-2.13-1L494,19.18l-1.23-.24-1.15-.33-1.06-.25-1.15-.16L488.07,18h-.82L485.94,18h-1.15l-1.15.17-1.23.08-1.31.16-.74.17-1.31.16-1.06.25-2,.73-1.06.5-1,.57-.9.74-.82.9-.82.82-.57.9-.49,1-.33,1-.16,2.29v1.23l.08,1.23.41,1.06.65,1,.82.82.9.73.91.66,1,.49,1,.41,1.15.41,1.23.41,1.15.25,2.37.65,1.23.25,1,.16,1.07.25,1.15.33,2.37.32,1.23.17,1.15.24,1.15.17,1.23.24,1.14.25,1.07.33,3.28,1.31,1.14.41,1.81.82,1,.57,1.06.82,1,.82.82.82.73.82.58.65.65,1,.49,1.06.33,1.15.17,1.06.16,1.15.25,1.23.16,1.23Zm-44.25,2.78-.08-.16-.08-.08-.16.16v.17h.16Zm1.48.82.08-.08v-.16l-.08-.08-.16.08-.09.08v.16H466v.08Zm.41.82-.08-.16h-.08l-.09-.08-.08.16V61l.08.08h.17Zm.9,1.4-.16-.17h-.09l-.24.08v.17h.24Zm0,1.8-.08-.08h-.17v.24l.09.08h.16Zm.57-2.87-.24-.16-.17.32.17.25H468l.08-.08ZM469,63l.24.08.08-.24-.08-.25H469l-.09-.08h-.16l-.16.08.08.08v.17Zm.57,1-.16-.16-.25-.08.08.33h.33Zm1.23,1.23h-.25l-.16-.16-.08-.16L470,65l-.25.16v.08l.5.33Zm.24-.08h.5l.24-.33v-.08l-.08-.16-.16.16-.17.08Zm1.15,1.56.25-.17.08-.24-.17-.33h.33l.41-.08.08-.25.25-.08-.16-.24-.25-.17v-.33l-.49-.32-.25-.09v-.24l-.16-.08H472l-.08.08v.16l.16.08.08.25.33.16v.5l-.17.32V66l-.57-.25-.24.17-.33.16.33.17v.08l.32.24Zm.57.74-.08-.09-.08-.16-.25-.08-.08.08v.08l.25.17Zm.66-.74.08.08h.08l.25.16h.08l.17-.08-.09-.24h-.24l-.17-.17-.24-.08H473l-.08.16v.09l.16.16Zm-.16.33-.09-.09H473v.17h.25Zm0-48.35.16.17.25.32v-.41l-.17-.16h-.16Zm.9,48.76-.08-.09h-.33l-.08.09-.17.08.33.16.25-.16Zm.57-.91v.09h.08l.08-.58v-.57l-.08.16-.08.08h-.41l-.33.17h-.24l-.17.24.17.25.24.08h.17l.24.08Zm0,.66-.08-.33h-.16V67l-.17.41.17.32h.16l.08-.16Zm-.33-48.59h.25l.16-.16h-.24Zm1.48,48.75-.33-.08h-.33l-.41.49v.17l.08.32h.41V68.1l.09-.08.16-.41Zm-.74-.57.25-.08.24-.25-.16-.33h-.17l-.16.25Zm.25-49.49.08.08h.16l.08-.08v-.08l-.08-.09h-.08l-.16.09ZM476.84,69l-.08-.08h-.08l-.08-.25.08-.24v-.08h-.08l.16-.09v-.08L477,68l.08-.41-.17-.16-.82-1-.16-.08-.16.08v.17l.08.16.24.41.17.41-.17.16.17.49v.41l-.25.17-.16.24.33.09h.24l.25.08.16-.17Zm-.33-50.88.09.24.16-.16.08-.25h-.08l-.08-.08Zm.91,50.64-.17-.17h-.16l-.08.17.16.32.16-.08.09-.08Zm-.33-52.94.08.33.25.25.24-.08v-.25l-.16-.16v-.17l-.08-.08Zm.49,51.3-.16-.33v-.16l-.17-.33h-.08v.08l-.08.33v.49l.16.08h.33Zm1,1.39-.08-.08h-.16l-.09.08v.08l.09.08.16.09.08-.09ZM478.81,18l.08.08H479V18l.17-.17-.09-.41-.08.17-.16.16Zm.57,50.14-.08-.32-.16-.17h-.25l-.08.25v.32l.16.09.08.08.25-.08Zm-.08-50.64.08.09.17-.17.08-.16h-.25l-.08.08Zm.33-2.54.08.58.08.16H480l.08-.24-.08-.33.24-.17.08-.24ZM480,68.76l-.08-.09-.09.17-.08.08V69l.08.08L480,69Zm.32-52.61-.08-.16H480l-.08.16.08.08h.16Zm.41,53-.08-.09-.08-.16-.33.08-.08.25.25.08h.24Zm-.08-53.92.08.25v.24l.25.17.08-.17v-.57l-.33-.08Zm.74,53.51-.08-.25-.17.33v.24h.09l.08-.08Zm.74-52.36.08.16.08.08.17-.16v-.25l-.17-.08-.08.08Zm.9,52.36H483l-.17.08-.08.08v.16h.08L483,69l.08-.16ZM483,70.31l-.17-.08-.08.08v.09l.16.16H483Zm.32-55,.17.25.24.16h.17l.08-.24.33-.25.41-.33h-.58l-.32.08-.25.09-.16.08Zm1,.9-.08-.16H484v.16l.08.17h.17l.08-.08Zm.33,53.1-.09-.08h-.16l-.16.16v.17h.24l.17-.17Zm-.17-55.14h.08l.09.08.16-.17-.08-.08-.17-.08-.08.08Zm.41.32-.16.08H485l.32.09h.08l.25.16.16.16v.41l-.08.33.08.17.17.16-.08.08h-.17l-.16.08-.25-.24-.08-.17H485l-.09.25.17.25.16.08v.24l.41.17h.41l.41-.41.25-.08h.16l.25-.41h.08l.41.32H488V16l.17-.41.49.16V16l-.08.24.33.09V16l.08-.17h.24l.25-.16.33-.25-.08-.32H490l.17.08.16.24h.08l.74-.41h.08l.09-.08.16-.24-.16-.09-.17-.16-.33.08-.41-.24-.32.16-.09.08-.49.17v-.41l-.16-.25h-.25v.08l-.16.09-.25.08-.16.24-.16.17.08.49-.41.24-.17.09-.16.16-.41.08-.16-.33-.25-.24.08-.41.08-.33L487,14l-.08.08h-.08l-.17.17-.41.24h-.49l-.08-.24-.25.08-.32.08Zm.25,1.15.16-.08v-.41l-.16-.17-.25.17v.41ZM486.92,69l-.08-.24-.08-.09h-.09v.25l.09.33Zm.41-52.19-.08-.17-.17-.08H487v.33l.17.08h.16Zm0-1.56.33.08.24-.16.17-.08.08-.09v-.65l-.25-.25-.32.25-.09.24-.16.25Zm3.44,2.05-.08-.41-.08-.33-.17-.33-.16-.24-.41-.17-.33.25v.33l.74.49.25.24Zm1.64-1-.08-.09-.08-.16v-.41l-.09-.08-.08.08H492l-.08.16-.25.17-.24-.17-.08-.16-.17-.08h-.08l-.16-.08-.09.24.09.08v.25l.16.33.33.49.16.08.08.08h.08l.25-.16.25-.25.16-.24Zm-.74-1h-.16l-.08.08.08.09.16.08.25-.08Zm.25-.65-.25.41.33.08.33.16.57-.16h.41v.08l.33-.16-.33-.17h-.16l-.17-.08-.32.08-.25-.08.08-.25h.17l.08-.32-.25-.25h-.41l-.24.25Zm.82,53.83-.25.08-.16.25h.24l.17-.17ZM494,16.23l-.33-.24-.25-.25h-.08l-.08-.16h-.74l.08.24.17.33.24.08.25.17.08-.49V16l.25.33Zm-1.15,51.05h-.25l-.08.25v.08h.08l.17-.08h.08Zm.41-52.77.16.17h.09l.32-.17.17-.41-.41.17Zm.66,2.54-.09-.24h-.16l-.25.08-.08.16v.17l.25.16.08-.08h.08Zm.16-1.06h.24l.17-.08.41-.41.08-.33-.25-.25-.16.17-.08.16-.33.41Zm.74.82-.33-.17-.33.17.25.24h.41ZM495.28,68l-.17-.16-.16-.09-.25-.08-.16-.08-.08.08.08.17.33.24Zm-.49-51.62.08-.17.08-.08-.08-.16-.17.08-.08.08-.08.17.16.08Zm.41.65-.33.25.08.08-.08.16.16.17h.17l.16-.17V17.3Zm1.06,51.3H496l-.17.08h-.08v.24l.16.09h.17l.16-.25Zm-.33-50.72.17.24.24-.08.25-.25v-.16l-.16-.16h-.25l-.16.16Zm0,48.59.09.08.16-.08h.16l.09-.17-.17-.16h-.16l-.17.08ZM496.1,16l.16.08h.17v-.25l-.09-.08h-.08l-.16.08Zm.49,50.8h-.08l-.08-.08-.09.08h-.08l.17.16.08-.08h.08Zm.16-49.16.08.16H497l.08-.16v-.17l-.16-.08h-.09l-.08.16Zm.33,48.59h.16l.09-.09-.17-.16-.16-.33V66Zm.82.65h-.74l.17.08.24.17h.25l.08-.17Zm-.41-47,.08.16h.08l.09.08H498l-.16-.24Zm.41-.74.08.25h.25l.24.08.17-.16-.08-.25-.25-.08H498ZM498,18l.25.57.16-.08.25-.08.33-.09.16-.16L499,18l-.66.16Zm.08-.66.25.16.25-.08-.17-.24h-.24l-.09.08Zm1.4,48.84-.17-.25-.08-.08h-.16l-.17.16.09.25v.16l-.5.49-.08.25v.33h.17l.08-.17.16-.16v-.33l.17-.08.08-.16.24-.17Zm-.41-46.79-.17-.16v.4l.17-.08Zm1.72,44.9h-.33l-.25.17h-.08l-.08.08-.33.16h-.49l.08.08.17.09.32.08.33-.33.33.33.25-.41.08-.08ZM499.7,19.27l.33.16.25-.08v-.17l-.09-.08Zm1.07,46.29-.08-.16-.09-.08h-.16l-.16.08v.16l-.09.33-.16.33h.16l.5-.5Zm-.41-45.89-.08.09v.16l.16.16.08-.08v-.24Zm2.21,44.25.08-.24v-.09l.08-.16v-.16l-.24-.17-.25-.08-.16-.33-.08-.08h.16l.16.08h.33l.25.08v-.08l.16-.49-.41-.24-.16.08-.08.08h-.09V62h-.57l-.16.16-.25.08v.25l.17.24h-.09l-.32.17L501,63l-.16.49.16.33.17.25.24.24.17-.08.08-.08h.74l.08-.08Zm-1,2.71-.25-.09H501l-.08.09v.08l-.08.24.25.09h.08l.16-.09.08-.08Zm1-1.23-.08-.08-.17-.33.09-.17-.17-.16-.16.16v.09L502,65l-.25.16-.24-.16v-.17h-.17l-.24-.08L501,65l.09.33.08.24.41.49.16.17.17.08.32-.25V66l.08-.08.17-.33.08-.08ZM502.08,21l.24.24h.17l.16.08v-.08l.08-.08-.16-.08-.08-.17Zm4.67,38.92-.08-.25-.49-.49-.09-.16v-.09l.17-.16.08-.16v-.17l.08-.16.17-.25.16-.08.08-.08-.08-.33-.08-.24.08-.09v-.08l-.08-.16-.25-.25-.08.08-.16.09v.24l-.09.41-.24.74-.08.16-.17.25v.49h-.16l-.17.08h-.16l-.16.08-.09-.08h-.49l-.32-.24-.33.16v.33l.08.16.08.08H504l-.32.17h-.17l-.08.08-.25.08h-.32l.24.25.08.16v.16l-.08.09-.16.08-.17.16-.16.08h.25L503,61h.16l.09-.08.32.08h.25l.16.25.25.24V62l-.16.24-.09.25-.16.08-.08.08-.25-.16h-.33l.09.08v.16l.08.25.16.25.08.16-.24.25-.08.16-.09.08-.24.33-.25.25h.41l.49-.17v-.08l.09-.25.08-.41.24-.32v-.41l.17-.09h.16l.25-.16.24-.08v-.16l.17-.17v-.49l.24-.33V61.3l-.24-.08V61l-.17-.16.08-.33-.08-.08-.08-.17h-.08v-.32l.24-.08.25.08.16.08v-.16l-.08-.09.25-.24.33.16.24.08.25.17ZM503,21.56l-.33.08.08.17.09.24.16.08.08.08.17-.16.08-.16-.08-.08v-.09Zm.08,1.64-.08-.08V23l-.08-.16-.08.16v.09l.16.16V23.2Zm.66,42h-.33l-.16-.16-.09-.25h-.24l-.08.25.24.16v.17l.25.24h.33l.16-.16ZM503,49.09l.08.17h.08l.09.08.08-.17V49l-.17-.08h-.08ZM504.62,64l-.33-.16-.08.08V64l-.41.41-.16.09h-.17l-.08.08.25.08.32.16.33-.16.25-.16.08-.09Zm-1.07-14,.09.17.08.08H504v-.17L503.8,50Zm.09,12.21h.24V62L504,62l-.24-.09-.17.17v.08Zm0-14,.08.16.16.17v-.25l-.08-.16Zm.65,2.62-.49-.16-.08-.08v.08l.08.16.08.25v.08l.17.16.08.17v.08l.16-.08Zm.66,7.7v-.65l.32.16h.25v-.16l-.08-.25-.33-.32-.08.16-.08.08v.33l-.25.08-.08.08h-.16l-.33.17v.24l.16.17.17.24.4.08.17-.16V58.6Zm-.58-1.14.09.08h.16l.16-.08V57h-.16l-.16.08v.17Zm.49,5.57-.16.08-.16.16v.09l.08.16.16.08.08-.08Zm-.16-10,.16.17.33.16-.08-.25-.25-.16-.08.08Zm0,2.46.08.08v.08l.08.09.25-.09.08-.16v-.08l-.08-.17H505l-.17.09Zm.16-5.33.09.25h.24l.17-.08.08-.17v-.24h-.17l-.08-.08-.24.16Zm.82,6.56.25.08-.08-.08-.25-.49-.24.08h-.25l-.16.08-.09.17.33.08.25-.08Zm.74,4.34-.16-.16-.08-.17-.33.09-.08.16v.16l-.09.09-.24.49-.08.08-.09.25-.16.24-.08.08.82-.32.24-.25.17-.25.08-.08.08-.16Zm-.9-7.45-.16.32V54l.08.16.24.08.09-.08.16-.08v-.33l-.08-.08v-.16Zm.08,7h.17v-.25l-.17-.08h-.08v.25Zm.25-8.19.08.08v.16l.33.17v-.09l-.08-.08-.09-.16-.16-.08-.08-.08Zm.49.82h-.25l-.16.08v.16l.33.17h.57v-.25h-.16Zm.66,5.81-.17-.08h-.16v.08h-.08v.17l.16.08h.08l.17-.08Zm.08-4.42-.08-.16h-.09l-.16.08v.41h.08l.17-.08Z"/><path class="cls-1" d="M431.1,70.14c-.78-.92-2.19-1.14-3.21-1.67a2.83,2.83,0,0,1-1.61-1.71,4.66,4.66,0,0,1,.48-2.5,27.41,27.41,0,0,1,1.54-3.46,29.61,29.61,0,0,1,10.16-11,29,29,0,0,1,3.68-2c1.35-.61,2.77-1,4.13-1.56a6,6,0,0,0,.88-.44l.12-.06c.72-.2,1.45-.38,2.19-.53a.24.24,0,0,0,.17-.34,1.75,1.75,0,0,0-.75-.64.88.88,0,0,0-.36-.1c-.85-.13.07-1.5.22-1.72a.16.16,0,0,0,0-.07A20.92,20.92,0,0,1,451.06,39a.24.24,0,0,0-.24-.37,7.34,7.34,0,0,0-2.3,1.2l-.22.15-.41.27h0l-.78.49-.06,0c-.54.48-1.1,1-1.66,1.42l-.47.36,0,0-.06,0h0q-2.28,1.85-4.71,3.48l0,0a1,1,0,0,1,0,.14l-.15,0h0c-1.46,1-3,1.92-4.5,2.79a.49.49,0,0,1-.72-.51,12,12,0,0,1,1.36-3.32c.81-1.5,1.64-3,2.45-4.5,1.52-2.78,3-5.74,5.24-8a27.61,27.61,0,0,1,3.92-3.07.76.76,0,0,1-.33-.53,1.48,1.48,0,0,1,.43-.33.46.46,0,0,1,.63.31v.05c1-.71,2-1.43,3-2.24.34-.29.67-.61,1-.92v0l.06,0a44.22,44.22,0,0,0,4.36-4.82A.53.53,0,0,1,457,21a7.93,7.93,0,0,1,1.48-.68c.32-.1,1-.17,1.07-.59s-.15-.41-.38-.48h0a.49.49,0,0,1-.27-.76c.65-.86,1.28-1.73,1.88-2.61A5.46,5.46,0,0,0,462,12c0-.26-.36-.23-.46,0a20,20,0,0,1-2.25,3.4h0l0,0-.12,0h0a42.5,42.5,0,0,1-9.38,7.87c-1.21.81-2.87,2.24-4.44,1.73a2.84,2.84,0,0,1-1.5-1.32l-.09,0,0,0a8.83,8.83,0,0,1-.89-2.55,29.53,29.53,0,0,1-.43-4.69c-.07-1.68-.11-3.35-.13-5,0-.29,0-.59,0-.89l-.17-.13.17-.14c0-3.31.13-6.62.38-9.92,0-.17-.18-.34-.34-.24-1.55.92-1.68,2.92-1.92,4.53-.26,1.85-.46,3.71-.64,5.57a1,1,0,0,1,.25-.08s.1.14.09.16a1.88,1.88,0,0,1-.24.14l-.11-.16c-.06.7-.14,1.39-.19,2.08-.21,2.52-.36,5.06-.51,7.59,0,.77-.12,1.55-.11,2.33v.06a8.52,8.52,0,0,0-.09,1.43,12.64,12.64,0,0,0,.35,2.53c.05.23.1.47.17.7a.45.45,0,0,1,0,.28c0,.13-.08.26-.12.4l0,.06-.07,0c-.59,2-1.37,3.87-2.14,5.78l.07,0s.06.08.06.08l-.15.09,0,0-.42,1a47.16,47.16,0,0,0-1.62,4.64c-.24.86-.45,1.73-.74,2.57a.48.48,0,0,1-.94-.19c0-.24,0-.49,0-.74,0-1,.06-1.93,0-2.89-.06-1.87-.32-3.71-.43-5.57-.19-3.36,1.23-7.36-1-10.28a.24.24,0,0,0-.42.13,61.22,61.22,0,0,0-.13,8.46,62.14,62.14,0,0,1-.35,6.24.28.28,0,0,1,.12,0s0,0,0,0l-.11,0,0,0c-.07.72-.16,1.44-.26,2.16s-.18,1.27-.28,1.91l.05,0s0,0-.05,0h0a17,17,0,0,1-1.84,6.14c-.66,1.11-1.47,2.09-2.07,3.24a33.88,33.88,0,0,0-1.6,3.72.16.16,0,0,0,0,.15s0,.1-.05.15a.26.26,0,0,1-.07.15,9.94,9.94,0,0,0-.76,1.31,11.51,11.51,0,0,1-2.13,3.21,29.69,29.69,0,0,1-2.55,2.59c-.55.45-1.16.8-1.73,1.2l0,0-.6.35-.77.44A3.24,3.24,0,0,1,416,64a.48.48,0,0,1-.64-.56,51.9,51.9,0,0,0,1.24-7.93.24.24,0,0,0-.46-.11,27.58,27.58,0,0,0-1.16,3.68c-.27,1.15-.4,2.35-.78,3.47a5.1,5.1,0,0,1-.26.58,1.36,1.36,0,0,1,.49-.08c.05,0,.15.17.14.26,0,.26-.26.33-.52.32a1.82,1.82,0,0,1-.31-.1c-1,1.73-2.83,3-4.23,4.36a16,16,0,0,1-4.92,2.58,21.23,21.23,0,0,1-6,0,19.84,19.84,0,0,1-4.92-2.58c-1.65-1.64-3.9-3.05-4.69-5.34-.39-1.12-.51-2.32-.79-3.47A27.54,27.54,0,0,0,387,55.38a.24.24,0,0,0-.46.11,50.7,50.7,0,0,0,1.24,7.93.49.49,0,0,1-.65.56,3.5,3.5,0,0,1-.45-.21c-.27-.14-.52-.29-.77-.44l-.6-.35,0,0c-.58-.4-1.19-.75-1.74-1.2a24.94,24.94,0,0,1-2.23-2.25.24.24,0,0,1-.29.1.31.31,0,0,1-.15-.19c0-.09.08-.15.23-.14l-.1-.11A11.77,11.77,0,0,1,378.89,56a8.94,8.94,0,0,0-.76-1.31.34.34,0,0,1-.06-.15.88.88,0,0,1-.05-.15.26.26,0,0,0,0-.15,36.16,36.16,0,0,0-1.53-3.57.2.2,0,0,1-.19,0c-.06,0-.08-.11-.15-.22l.17-.16c-.59-1.07-1.35-2-2-3.06-1.41-2.38-1.75-5.42-2.13-8.12a62.22,62.22,0,0,1-.61-8.4,61.22,61.22,0,0,0-.13-8.46.24.24,0,0,0-.42-.13c-2.24,2.92-.82,6.92-1,10.28-.1,1.86-.37,3.7-.42,5.57,0,1,0,1.93,0,2.89,0,.25,0,.5,0,.74a.48.48,0,0,1-.94.19c-.29-.84-.51-1.71-.74-2.57a44.75,44.75,0,0,0-1.63-4.64,76.62,76.62,0,0,1-2.76-7.4.53.53,0,0,1,0-.28c.07-.23.11-.47.17-.7a12.64,12.64,0,0,0,.35-2.53c0-.05,0-.11,0-.16s0,0,0,0a.06.06,0,0,1,0-.07h0a9.23,9.23,0,0,0-.08-1.18v-.06c0-.78-.07-1.56-.12-2.33-.14-2.53-.29-5.07-.5-7.59s-.48-5.15-.85-7.71C362.36,3,362.23,1,360.68,0a.24.24,0,0,0-.34.24q.26,3.48.34,7h0s0,0,0,.06l-.05,0c0,1.34.05,2.69,0,4,0,1.68-.05,3.35-.12,5a30.75,30.75,0,0,1-.43,4.69c-.29,1.4-.9,3.45-2.44,3.95s-3.23-.92-4.45-1.73a47,47,0,0,1-8.37-6.75,0,0,0,0,0,0,0c0,.06-.13.09-.23.15s-.21-.12-.26-.2a.26.26,0,0,1,0-.22.2.2,0,0,1,.19-.06,22,22,0,0,1-1.91-2.41l-.3.13c0-.05-.1-.12-.09-.17a.23.23,0,0,1,.24-.19c-.35-.53-.68-1.07-1-1.64-.1-.19-.42-.22-.46,0a5.46,5.46,0,0,0,1.2,3.85c.59.88,1.23,1.75,1.88,2.61a.49.49,0,0,1-.28.76h0c-.23.07-.44.2-.39.48s.76.49,1.08.59a6.94,6.94,0,0,1,1.15.51v0l.09,0,0,.11h0l.27.14a.37.37,0,0,1,.13.12,41.78,41.78,0,0,0,5.42,5.78c2.43,2.09,5.35,3.55,7.63,5.81s3.72,5.21,5.24,8c.82,1.5,1.65,3,2.46,4.5a12.29,12.29,0,0,1,1.36,3.32.49.49,0,0,1-.72.51,68.31,68.31,0,0,1-9.88-6.78c-.56-.47-1.12-.94-1.67-1.42a.15.15,0,0,0-.06,0c-.26-.16-.52-.32-.77-.49h0l-.41-.27-.22-.15a7.39,7.39,0,0,0-2.31-1.2.24.24,0,0,0-.23.37,20.92,20.92,0,0,1,2.28,3.31l0,.07c.16.22,1.08,1.59.23,1.72a1,1,0,0,0-.37.1,1.88,1.88,0,0,0-.75.64.25.25,0,0,0,.18.34c.73.15,1.46.33,2.18.53a.34.34,0,0,1,.12.06,6.13,6.13,0,0,0,.89.44c1.36.56,2.78.95,4.13,1.56a28.25,28.25,0,0,1,3.67,2,29.56,29.56,0,0,1,10.17,11,28.92,28.92,0,0,1,1.54,3.46,4.75,4.75,0,0,1,.48,2.5,2.83,2.83,0,0,1-1.61,1.71c-1,.53-2.43.75-3.21,1.67-.44.52-.64,1.4.1,1.77a2.33,2.33,0,0,0,1.56-.07c.68-.18,1.35-.41,2-.64a23.55,23.55,0,0,1,4.24-1.29,11.65,11.65,0,0,1,8.52,2c1.2.86,8.2,4.43,13.1,4.43C406.3,76.3,413,73,414.51,72c0,0,0,0,0-.06s0,0,0,0l.09.06.07,0a11.63,11.63,0,0,1,8.51-2,23.65,23.65,0,0,1,4.25,1.29c.66.23,1.33.46,2,.64a2.33,2.33,0,0,0,1.56.07C431.73,71.54,431.54,70.66,431.1,70.14Zm18.64-30.26v0l-.05,0Zm-1.7,4s0,0,0,0,0,0,0,0H448Zm-1.63-2.19s.09,0,.1,0,0,.07,0,.1-.08,0-.1,0S446.4,41.69,446.41,41.66ZM440,46.4s.1,0,.1.05,0,.06,0,.1l-.1,0Zm-.52.78a.08.08,0,0,1,0,0l0-.08.05,0Zm0-.35a.52.52,0,0,0,0,.11l-.1,0s0,0,0-.07Zm-.88.46,0,.05,0-.05Zm0,.29,0,0,0,0ZM436,50.35s.07,0,.1,0l-.06.09-.11,0S435.92,50.36,436,50.35ZM461.68,13l0,.12a.18.18,0,0,1-.1,0s0,0,0-.07Zm-.17.95,0,0,0-.05Zm-.42.22.09.06a.26.26,0,0,1-.09,0s0,0,0,0A.41.41,0,0,1,461.09,14.15Zm-.18.61s0,0,0,0a.54.54,0,0,1,0,.1l-.08-.05S460.88,14.79,460.91,14.76Zm-.64,1.08.13.11a.67.67,0,0,1-.14.09l-.07,0A1.09,1.09,0,0,1,460.27,15.84Zm-1.34.26.1.12a.93.93,0,0,1-.13,0s0-.06-.07-.09Zm-.79,1.5s.09,0,.1.06,0,.06,0,.09-.1,0-.11-.05S458.12,17.64,458.14,17.6Zm-.72,1.08.1.06-.08.07-.07-.09Zm-.66.73.06.05a.09.09,0,0,1-.05,0l0,0Zm-.84.41s.05.07,0,.1,0,0-.08.07a.6.6,0,0,1-.08-.08Zm-.17,1.28s0,0,0,0,0,0,0,0l0,0ZM454,23.4l.09.05-.09.05s0,0-.06,0Zm-1-1.17s.05,0,.07,0a.25.25,0,0,1,0,.07s-.06,0-.06,0S452.91,22.24,452.93,22.23Zm-.49.91a1.7,1.7,0,0,1,.21.07s-.1.1-.14.09-.09-.05-.13-.09S452.43,23.13,452.44,23.14Zm-.11,1.62s.2.14.19.2a.36.36,0,0,1-.23.2c-.06,0-.17-.07-.35-.15A1.83,1.83,0,0,1,452.33,24.76Zm-.68-.56,0,0-.11.06,0-.05Zm-1.21,3.3-.11-.06.05,0,.11.05Zm-.14-.28s0,0,0,0l0,.07Zm.26-.45a.37.37,0,0,1-.14-.07s0-.08.06-.08a.58.58,0,0,1,.16.05S450.57,26.78,450.56,26.77Zm-.2-2.87c.09-.1.21-.06.31,0s.19.14.12.25-.14.08-.24.13-.21-.1-.27-.18S450.3,24,450.36,23.9Zm-.07,1.88a.17.17,0,0,1,.07.17s-.13.05-.2.07a1.46,1.46,0,0,0-.07-.19A.58.58,0,0,1,450.29,25.78ZM449.75,24l.1.06-.09.06-.05,0A1,1,0,0,1,449.75,24ZM449.46,27s-.06-.11-.09-.17l.14-.12.15.22C449.59,26.93,449.51,27,449.46,27ZM449.39,24l.19,0s0,.09,0,.08l-.19-.05S449.38,24,449.39,24ZM448,24.9a.87.87,0,0,1,.48-.27.77.77,0,0,1,.44.3c.2.24.07.48-.17.8a4.26,4.26,0,0,1-.67-.26A.36.36,0,0,1,448,24.9Zm.24,2,0,.07,0-.07Zm.27.42a.49.49,0,0,1,.49.41.59.59,0,0,1-.62.56.6.6,0,0,1-.49-.56A.56.56,0,0,1,448.54,27.31Zm-1.21-1.95,0,.09s0,0-.06,0l0-.1Zm-.31-.27.06.09s0,0-.05,0l0,0A.42.42,0,0,1,447,25.09Zm-.16,2.19.06.09-.05,0-.09,0Zm.09.87c0,.08.07.15.1.22s-.15.05-.2,0-.06-.1-.09-.16Zm-.4-3.06.1,0-.1.05,0,0S446.54,25.09,446.55,25.09Zm-.09,4.48s0,0,0,.05l-.05,0Zm-.23-1.38s0,0,0,0,0,0,0,0a.08.08,0,0,1,0,0Zm-.46-2.74c.09,0,.22.13.22.21s-.14.19-.22.19-.17-.11-.29-.2C445.6,25.56,445.69,25.45,445.77,25.45ZM443.92,32s0,0,0,0l-.05,0v-.05Zm-.55.45s-.07,0-.11,0l.05-.11s.09,0,.1.06S443.4,32.48,443.37,32.49Zm.35-8,0,0-.05,0s0,0,0,0Zm-.51,5.22a.39.39,0,0,1,.21.21c0,.1-.17.18-.33.13s-.18-.12-.16-.29C443,29.72,443.13,29.66,443.21,29.69Zm-.6,2.42c.08,0,.15.11.23.16a.64.64,0,0,1-.2.08c-.06,0-.11-.06-.17-.1S442.59,32.1,442.61,32.11Zm-2.64.94-.14,0,.06-.14s.11,0,.12,0S440,33,440,33.05Zm.26,3.09s-.06,0-.08-.07l.08-.07.11.1S440.26,36.14,440.23,36.14Zm-.11-6.77a.45.45,0,0,1,.11,0s0,0,0,0,0,0,0,0A.31.31,0,0,1,440.12,29.37Zm.31,3.87a.91.91,0,0,1-.17-.09l.18-.07a.12.12,0,0,1,.05.08A.13.13,0,0,1,440.43,33.24Zm.31.65s-.1,0-.1,0l.06-.15.17.07A.69.69,0,0,1,440.74,33.89Zm0-1.63s0,0,0,0h0a.14.14,0,0,1,0,.06S440.71,32.27,440.71,32.26Zm.91-4.16,0,0-.12,0,.05-.05ZM441.57,27l.09,0,.06.1s-.07,0-.1,0S441.59,27,441.57,27Zm.08,6.25-.09-.05s0-.07.05-.08.08,0,.11,0ZM442,7.75l0,0-.08,0,0,0S442,7.76,442,7.75Zm.12,18.57s-.07,0-.1,0,0,0-.06-.07l.05-.08ZM442,23.73l.05,0a.93.93,0,0,1-.05.1s-.06-.05-.06-.07S442,23.75,442,23.73Zm0,1.15s-.06.06-.09.06-.05,0-.08-.06l0,0Zm-.18-1.69s0,0,.06,0,0,0-.06,0a.09.09,0,0,1-.05,0Zm-.11.74a.36.36,0,0,1,0-.09h.1s0,.06,0,.09Zm0,1.17a.66.66,0,0,1,0,.11c0,.16-.17.25-.27.21a.11.11,0,0,1-.07-.1c0-.13.12-.15.22-.2Zm-.27-3s.05,0,.05,0a1.2,1.2,0,0,1,0,.19h0l.22-.05v0l-.23,0h0a1.49,1.49,0,0,1-.12-.14S441.46,22.15,441.49,22.13Zm.05,4.1a.23.23,0,0,1,.32,0,2.9,2.9,0,0,1,.23.4,3.08,3.08,0,0,1-.46,0c-.13,0-.25-.06-.24-.18A.39.39,0,0,1,441.54,26.23Zm-.37-5.41-.07-.09.07-.09s.06.06.06.09S441.19,20.79,441.17,20.82Zm-.05-12.25a.51.51,0,0,1,.07.15s-.07.07-.07.06a.69.69,0,0,1-.13-.11Zm-.2,17.14a.09.09,0,0,1,0,.05h-.05v-.05Zm-.39-16.12s.15,0,.17.06-.05.12-.07.17l-.19-.07C440.47,9.69,440.48,9.61,440.53,9.59Zm.05,21.14a.21.21,0,0,1,.2.22c0,.06-.08.12-.16.23-.11-.11-.2-.16-.24-.24S440.48,30.72,440.58,30.73ZM440,12.28l.17.1-.07.08a1.08,1.08,0,0,1-.18-.11Zm-.31,1.19a1.19,1.19,0,0,1,.27-.07l0-.05h0a.48.48,0,0,1,0-.17.22.22,0,0,1,.14-.14s.16.05.16.08a.3.3,0,0,1-.1.17.59.59,0,0,1-.2.06s0,0,0,0l0,0,0,0-.08,0-.19.19s-.07,0-.11,0S439.69,13.48,439.72,13.47Zm-.34,11.58-.06,0,.08-.05,0,0Zm0-1.66s0,0,0-.05l0,0,.1,0Zm.1-1.93-.05,0,.06-.05,0,0Zm-.19,12.23.06.09-.05,0-.06-.08Zm-.16,3c0,.06.05.11.07.17l-.09.06L439,36.7Zm-1.95,5.62-.11,0,.05-.1s.09,0,.1,0S437.19,42.24,437.18,42.27Zm.85-4.53.1-.17s.08.06.07.08a1.4,1.4,0,0,1-.09.17Zm.18.91s0,0,0,0l.1,0a.19.19,0,0,1,0,.08Zm.08-3.32a.39.39,0,0,1,.24.21c0,.08,0,.19-.08.28a.36.36,0,0,1-.21,0,4.59,4.59,0,0,1-.32-.36C438.11,35.37,438.22,35.31,438.29,35.33Zm-.72-1.43.05,0a.22.22,0,0,1-.05.08l-.05,0A.41.41,0,0,0,437.57,33.9Zm-.21,4.29c.06,0,.16.06.18.11s0,.08-.05.13h.05c.13,0,.24,0,.23.17s-.09.15-.17.28a1.32,1.32,0,0,1-.24-.25.13.13,0,0,1,.06-.16l-.14-.08C437.3,38.32,437.33,38.26,437.36,38.19Zm0,1.28,0,0s0,.05,0,0a.21.21,0,0,1-.1,0Zm-.44-4.57s0,.05,0,.05a.27.27,0,0,1-.08.07l0-.05Zm-.47,4.81a.38.38,0,0,1,.24-.09,7,7,0,0,1,.7.17,1.81,1.81,0,0,1-.69.35.33.33,0,0,1-.24-.08A.24.24,0,0,1,436.46,39.71Zm-.62.41s.07.06.06.08a.64.64,0,0,1-.12.15c0-.08-.07-.12-.09-.17Zm-1,1.9.07.06,0,0s0,0-.05,0Zm-.13.8.05,0-.07,0,0,0S434.69,42.83,434.71,42.82Zm-.31,2,.05,0-.06,0s0,0,0,0Zm-2.21-1.34v0l.05,0Zm-.06-.61a2.65,2.65,0,0,1,0-.52c0-.08.13-.12.2-.18s.07.18.05.26A3.17,3.17,0,0,1,432.13,42.9Zm0-12.69,0-.09a.41.41,0,0,1,.05.09l-.05,0Zm.27,10.23c-.06,0-.12,0-.12-.06a.48.48,0,0,1,.05-.14s.1,0,.1,0S432.38,40.38,432.37,40.44Zm0-7.62a.47.47,0,0,1-.06-.09l0,0,.11.05Zm.6,15.5s0-.06-.06-.1l.13,0,.05.1S433,48.33,432.94,48.32Zm0-1.36.05,0,0,.07a.09.09,0,0,1-.07,0Zm.66-1.46,0,.09s0,0-.05,0-.05,0,0,0A.41.41,0,0,1,433.58,45.5ZM433.47,53s.07.07.07.08a.42.42,0,0,1-.14.09s0-.05-.09-.1A.77.77,0,0,1,433.47,53Zm-.34-13.92.07.13s-.08,0-.11,0,0-.06,0-.1ZM433,26.45l.07.09-.19.08s0-.05-.06-.08Zm-.16,11.29s0,0,0,0l0,.09-.08,0Zm-.14,3.1a.39.39,0,0,1-.05.14l-.19-.06c.06-.06.09-.11.14-.13S432.73,40.82,432.73,40.84Zm-.29-18c.26.24.08.45-.16.78-.18-.14-.37-.22-.39-.32C431.84,23,432.13,22.89,432.44,22.84Zm-.69,11.07c-.06,0-.13,0-.13-.07a1.47,1.47,0,0,1,.06-.14s.1,0,.1,0S431.76,33.85,431.75,33.91Zm-.14-7.7.15.07-.07.07a.23.23,0,0,1-.1,0S431.6,26.24,431.61,26.21Zm0,4.19v.1h-.05s0-.06,0-.09Zm-.05,9.88.09.07,0,0-.11,0Zm.06,4.26a.09.09,0,0,1-.07,0s0,0,0,0l.05,0A.16.16,0,0,0,431.65,44.54Zm0,.88.11.12s-.08.05-.09,0a.63.63,0,0,1-.11-.12Zm-.53-4.32.08,0-.09,0Zm-.14-.7v0l0,0Zm-.69,5a.08.08,0,0,1,0,0l-.08,0a.14.14,0,0,1,0,0ZM429.44,48s0,0,0,.06a.47.47,0,0,1-.06.09l-.07-.09Zm-.43.52h.06s0,0,0,.06l0,0Zm-.39.73c.05,0,.11.1.11.16a.24.24,0,0,1-.1.18.54.54,0,0,1-.7-.32A5.85,5.85,0,0,1,428.62,49.22Zm-1.31,3.61a.23.23,0,0,1,.23.19c0,.15-.14.31-.28.29a.7.7,0,0,1-.24-.15A.33.33,0,0,1,427.31,52.83Zm-.75-.89.06.06-.05,0s0,0,0,0Zm-85-39.52-.05,0a.93.93,0,0,1,.05-.1s0,.07,0,.1S341.61,12.41,341.6,12.42ZM344.9,20h0s0,0,0,0h.07Zm0-1.36-.05-.08.15-.07s0,0,.07.07Zm.82.82,0,0s0,0,0,0,0,0,0,.05S345.76,19.47,345.75,19.49Zm.08-1.33s0,0,.05,0,.05,0,.05,0l0,.09A.47.47,0,0,1,345.83,18.16Zm.11,1-.05,0,.12-.05s0,0,0,.05Zm.6.53a.67.67,0,0,1-.14-.09l.13-.1a.67.67,0,0,1,.09.14S346.56,19.7,346.54,19.69Zm.93,1.35a.36.36,0,0,1,0-.09l.05,0a.38.38,0,0,1,0,.1S347.48,21,347.47,21Zm7,4.68-.13-.14.19-.08s.07.07.06.08A1.49,1.49,0,0,1,354.5,25.72Zm1.37,1.84,0,0,0,0Zm3,2.69s-.12,0-.18-.07,0-.15.08-.16.13,0,.2.06S358.92,30.22,358.87,30.25Zm.61-.55,0-.06.11,0s0,0,0,0Zm.6,3.26-.16-.08a1.22,1.22,0,0,1,.07-.17c.05,0,.15,0,.16.09S360.11,32.91,360.08,33Zm3.11-17.54a1.42,1.42,0,0,1,.12.13h-.19s0-.06,0-.09S363.18,15.41,363.19,15.42ZM363,28.23l0,0a.56.56,0,0,0-.05-.08l.05,0Zm-.32-20.34c0,.05-.05.14-.09.15s-.13,0-.19,0l.08-.18Zm-1.19,8.19s0,0,0,0,0,0,0,0l-.07,0Zm0-7.65a.32.32,0,0,1-.48.16A.32.32,0,0,1,361.43,8.43Zm-.23,8.74a1.1,1.1,0,0,1,.09.14s-.05,0-.08.06l-.1-.14Zm-.1-3.07h0v0Zm-.24,7.06s.05,0,.08-.06.11,0,.1,0a1.3,1.3,0,0,1-.08.17A.54.54,0,0,1,360.86,21.16Zm.22,3.32-.06,0s0,0,0-.06l.09,0S361.09,24.46,361.08,24.48Zm0-3.91s0-.08.07-.08l.17.07-.17.08Zm.16,8.17a1.06,1.06,0,0,1,.19-.06s.05,0,.08.06a.89.89,0,0,1-.19.07S361.22,28.77,361.2,28.74Zm.32,2.79s-.13-.05-.19-.07a1.62,1.62,0,0,1,.1-.18l.2.09C361.59,31.43,361.57,31.52,361.52,31.53ZM361.58,15s-.08,0-.11,0,0-.08,0-.09.08,0,.12,0S361.61,14.94,361.58,15Zm.57-10.44.06,0v0h.37c0,.2-.08.35-.32.3-.08,0-.12-.19-.18-.3h.08Zm.09,9.74a.54.54,0,0,1,0,.1s-.07,0-.07-.07l.06-.07S362.25,14.25,362.24,14.26Zm-.15.3a1.38,1.38,0,0,1,.27-.08s.11.14.1.15l-.25.14Zm.79,7-.57.47C362.29,21.34,362.29,21.34,362.88,21.53Zm0,9.23s-.07-.05-.06-.06a1.22,1.22,0,0,1,.07-.17s.1.08.11.13S362.94,30.73,362.89,30.76ZM363,16.3l.1-.05s0,0,0,0l-.1.05S363,16.31,363,16.3Zm.19,18.05-.11-.1.17-.08s.07.07.06.07A.63.63,0,0,1,363.19,34.35Zm.49-16.91a.41.41,0,0,0,0,.1l-.08,0A.51.51,0,0,1,363.68,17.44Zm0,1.07c0,.07.08.13.06.19s-.11.05-.17.07l-.09-.18Zm-.19,13.27s0,0,0,0l0,.05h0Zm.09,3.5s-.07-.1-.1-.15.14-.08.2-.07.06.1.09.16S363.64,35.3,363.59,35.28Zm.17-6.25s-.07,0-.08,0,0,0,0-.07l.09,0A.19.19,0,0,1,363.76,29Zm.74,6.13-.18-.08.06-.19c.07,0,.17,0,.18.08S364.52,35.1,364.5,35.16Zm.81,3.94-.09-.18.21-.08c0,.06.08.13.06.18S365.38,39.08,365.31,39.1Zm1.22,2.73a2,2,0,0,1-.23-.06h0l.18.48s-.05,0-.08.05l-.1,0v-.51h.24l.12,0A.28.28,0,0,1,366.53,41.83ZM366.41,39l0,0a.33.33,0,0,1,.1.06l0,0Zm.17-1.25a2.42,2.42,0,0,1-.53,0c.17-.16.23-.27.31-.28s.21,0,.32,0S366.63,37.73,366.58,37.74Zm.67,2,.07,0,0,0Zm-11.6,4s-.12.06-.18.08a1.42,1.42,0,0,1-.08-.18l.19-.09a.08.08,0,0,1,0,.05l0,0,0,0-.05.07A.08.08,0,0,1,355.65,43.77Zm6.29,2.84c-.23,0-.48.09-.65-.12,0,0,0-.08,0-.11.2-.24.43-.06.65,0,0,0,.06,0,.13.13S362,46.6,361.94,46.61Zm.49-.26-.07-.18c.07,0,.15-.06.21,0s.05.1.07.16Zm3,3h-.08l0-.08h.13A.11.11,0,0,1,365.45,49.31Zm2.69,2.7c-.13,0-.22-.11-.21-.28a.22.22,0,0,1,.24-.24.32.32,0,0,1,.29.24C368.48,51.85,368.31,52,368.14,52Zm.32-8.84s0-.05-.06-.07a.85.85,0,0,1,.17-.06s0,0,.06.07A1.15,1.15,0,0,1,368.46,43.17Zm.66,1.15-.1-.06.11,0s0,0,0,.05Zm.19,1.31c-.15,0-.19-.1-.19-.22a.24.24,0,0,1,.23-.26.25.25,0,0,1,.23.27A.22.22,0,0,1,369.31,45.63ZM371,26.08a.26.26,0,0,1,.09.14.17.17,0,0,1-.24.15c-.05,0-.08-.08-.15-.17A2.07,2.07,0,0,1,371,26.08Zm-.1,7.3v0l0,0Zm0,4.15h-.11a.35.35,0,0,1,0-.06h.11Zm-.42-13.31h0s0,.05,0,.08l0,0A.06.06,0,0,1,370.48,24.22Zm-.27,9.07a.46.46,0,0,1,.16.07s-.05.09-.07.08a.58.58,0,0,1-.16,0Zm.05,8.59s-.05-.05-.07-.08.05-.08.06-.08l.19.07Zm-.07-2.05a.62.62,0,0,1,.78-.29C370.8,39.93,370.53,39.92,370.19,39.83Zm.87,2c-.06,0-.16,0-.18-.09s0-.12.07-.17.17,0,.18.08S371.08,41.73,371.06,41.79Zm0-14.53s-.07,0-.1,0v-.09l.18.05S371.08,27.25,371.05,27.26Zm.42,25s0-.05,0-.06,0,0,.06,0l0,0Zm.24-12.22-.19-.06.08-.17c.06,0,.15,0,.18.08S371.73,40,371.71,40.06Zm.09,12.8.05,0v0Zm.32-12.18s0-.08,0-.1.07,0,.11,0l0,.1Zm.55,3.24c-.12,0-.21-.14-.4-.27l.43-.27a1.37,1.37,0,0,1,.2.35C372.91,43.79,372.73,43.93,372.67,43.92Zm2.91,6.36-.16-.1.07-.07.15.1Zm.24,1.09s-.05,0-.07-.08l.2-.07s0,.05.07.08Zm1.3,1a.48.48,0,0,1,.16.08s0,.07-.07.07a.58.58,0,0,1-.18,0S377.1,52.32,377.12,52.32Zm-.74,5.47s0-.06-.07-.08l.2-.09a1,1,0,0,0,.07.15Zm.27-4.76c-.07,0-.12-.1-.22-.18a1.37,1.37,0,0,1,.27-.27c.08,0,.2.09.2.21S376.78,53.07,376.65,53Zm.9,2.46c-.3,0-.51-.12-.53-.33a.52.52,0,0,1,.48-.52.59.59,0,0,1,.54.49C378.05,55.33,377.85,55.48,377.55,55.49Zm1.65,13.09a.46.46,0,0,0-.07-.07l0-.09a.94.94,0,0,1,.1.1Zm.87-7.1s-.06,0-.07-.08,0,0,0,0a.16.16,0,0,1,.09,0Zm.95,2.63c-.07,0-.13-.09-.17-.12,0-.21.16-.35.31-.32s.22.09.21.21A.28.28,0,0,1,381,64.11Zm4,1.48s0,0,0,0l0,0,0,.06Zm.81-.27-.05,0a.47.47,0,0,0,.05-.1s.05,0,.05,0A.93.93,0,0,1,385.81,65.32Zm1.62,4.9s0-.07,0-.12l.15-.07s.05.11,0,.13S387.48,70.2,387.43,70.22Zm4.5-2.56a1.43,1.43,0,0,1,.19.09l-.2.09a.16.16,0,0,1-.06-.09S391.91,67.66,391.93,67.66Zm-.21,5.1c-.09,0-.16-.1-.29-.2a1.72,1.72,0,0,1,.32-.17.17.17,0,0,1,.2.2A.19.19,0,0,1,391.72,72.76Zm.47-1.78-.1,0,.09-.06a.27.27,0,0,0,.07.08Zm.33,2.38s0-.08,0-.11.08,0,.12,0l.07.08Zm1.37-.94-.05,0,.12-.05,0,.05Zm0-1.24H394s0,0,0,0l-.05,0Zm0-2.69s-.05,0-.09-.09.08-.1.13-.1.07.06.11.1A1.19,1.19,0,0,1,394,68.49Zm.86,2.87,0-.1s0,0,.05,0a.29.29,0,0,1,0,.1Zm.8,1.75s-.05-.07,0-.1a.58.58,0,0,1,.11-.05s0,.08,0,.1S395.64,73.1,395.61,73.11Zm1.81-1.47s0,0-.06-.08.08,0,.1,0,.05,0,.08.08Zm.85,3-.07-.07a.31.31,0,0,1,.1,0,.08.08,0,0,1,0,0Zm2,.37a.41.41,0,0,1,0,.11s0,0-.06,0,0-.07,0-.1Zm-.15.49s0-.08,0-.1.08,0,.12,0l.06.1Zm1.55-4.31h-.06a.36.36,0,0,1,0-.09h.12S401.69,71.15,401.68,71.18Zm.09,4.18,0,0,0,0,.05.07S401.78,75.37,401.77,75.36Zm1.64-3.29-.11,0s0-.09.05-.1a.14.14,0,0,1,.11,0S403.43,72,403.41,72.07Zm-.28-.53c-.11,0-.18-.15-.31-.26a1.19,1.19,0,0,1,.34-.24.29.29,0,0,1,.32.26A.3.3,0,0,1,403.13,71.54Zm1.22,1.3-.05,0a.23.23,0,0,1,.07-.07l.05,0Zm.76,2.34a.47.47,0,0,1-.05-.1s0,0,.05,0l.05.1S405.13,75.17,405.11,75.18Zm.38-3.41a.12.12,0,0,1,0,0s0,0,0,0l.09.06Zm0-.5a.47.47,0,0,1-.06-.09s0,0,0,0l.1,0Zm.78-.62s-.05-.08,0-.1.08,0,.12,0l.07.09Zm.23-.67v0l0,0Zm1-.27s0,0,0,0l0,0a.25.25,0,0,1,0,.07Zm.3.3v0h.05Zm.88,2s-.05,0-.05,0a.06.06,0,1,1,.1,0S408.71,72.05,408.69,72.06Zm.32-.27-.07-.05,0,0,.08.06Zm.26-.46s0,0,0,0l0,0,.05.06Zm.13-2.58s0,0,0,0l0,0Zm.14,2.28a.35.35,0,0,1,0-.06l.05,0a.46.46,0,0,1,.07.07Zm.49-.63s-.1,0-.19-.08c.08,0,.13-.11.17-.1s.08.07.11.11S410.06,70.4,410,70.4Zm.48-1.45s0,0,0,0,0-.05,0-.05l.11.05Zm.52,3.38-.09,0a.56.56,0,0,1,.05-.08s.08,0,.08,0A.12.12,0,0,1,411,72.33ZM412.17,71s0,0,0,0l.11,0s0,0,0,0A.35.35,0,0,1,412.17,71Zm1-3.22-.1,0,.08-.08.07.09S413.21,67.79,413.19,67.78Zm.95-1.86.07,0-.07.06s0,0,0,0Zm0,3.79s-.13-.07-.13-.08a2,2,0,0,1,.23-.28c0,.1.09.17.07.21A.42.42,0,0,1,414.15,69.71Zm.79,2-.1,0a.46.46,0,0,1,.07-.07l.06,0Zm.21-2.24s-.1,0-.11,0,0-.07,0-.11.1,0,.1.06S415.16,69.41,415.15,69.44Zm.21-1.17s-.05,0-.05,0l0-.1.09.07Zm.33,1.38-.05-.1.09,0a.18.18,0,0,1,0,.1S415.71,69.64,415.69,69.65Zm1,.31s0,0,0,0l.05,0a.25.25,0,0,0,0,.07ZM419,67.48h0a.17.17,0,0,1,0,0l.08,0A.13.13,0,0,1,419,67.48Zm.08-.79s0,0,0,0l0,0s0,0-.06,0S419.08,66.69,419.1,66.69Zm0,2.39,0,0,.11,0s0,0,0,0Zm1.74-7.67,0,0v0Zm.4,2.71a.38.38,0,0,1-.1-.12l.14,0a.52.52,0,0,1,.06.13S421.24,64.13,421.23,64.12Zm.11-.65.13.05-.06.07-.07,0A.27.27,0,0,1,421.34,63.47Zm.12,5.36h0l0,0,.09,0S421.47,68.82,421.46,68.83Zm.13-4.89s0-.06,0-.09l.11,0,.06.09A.53.53,0,0,1,421.59,63.94Zm.26,2.3s0,0,0,0l.05,0s0,0,0,0Zm.48-.81c-.11,0-.2-.12-.35-.21.12-.1.18-.19.27-.23s.28.09.31.19S422.45,65.46,422.33,65.43ZM423.88,61l0,0a.06.06,0,0,1,0,0h0A.64.64,0,0,1,423.88,61Zm1,8.78,0-.1h.05s0,0,.06,0Zm1-4-.11,0,.05-.1s.09,0,.09,0S425.88,65.72,425.87,65.75Zm.77,2.55-.06,0s0,0,0,0l.06,0Zm0-.37,0,0h0l-.07.09-.07-.07.14,0,0,0h0l.07-.09.07.06Z"/></g></g></svg>